<svg width="48" height="48" viewBox="0 0 48 48" fill="none" xmlns="http://www.w3.org/2000/svg">
<path d="M6 28H34" stroke="#0088FE" stroke-width="1.5"/>
<path d="M6 39V21C6 20.4477 6.44771 20 7 20H33C33.5523 20 34 20.4477 34 21V39C34 39.5523 33.5523 40 33 40H7C6.44772 40 6 39.5523 6 39Z" stroke="#0088FE" stroke-width="1.5"/>
<path d="M11.5063 20L14.8066 7.68321C14.9496 7.14974 15.4979 6.83316 16.0314 6.9761L41.1454 13.7054C41.6789 13.8483 41.9955 14.3967 41.8525 14.9301L37.1938 32.3168C37.0508 32.8503 36.5025 33.1669 35.969 33.0239L34 32.4963" stroke="#0088FE" stroke-width="1.5"/>
</svg>
