<svg width="175" height="101" viewBox="0 0 175 101" fill="none" xmlns="http://www.w3.org/2000/svg">
<g filter="url(#filter0_d_202:139)">
<path d="M166.633 22.916C166.633 14.0795 159.47 6.91602 150.633 6.91602L43.0064 6.91602C37.8539 6.91602 33.0166 9.39737 30.0109 13.5823L11.337 39.5823C7.33096 45.16 7.33096 52.672 11.337 58.2497L30.0109 84.2497C33.0166 88.4347 37.8539 90.916 43.0064 90.916L150.633 90.916C159.47 90.916 166.633 83.7526 166.633 74.916L166.633 22.916Z" fill="white"/>
<g clip-path="url(#clip0_202:139)">
<path d="M82.6055 73.9196L77.1602 64.3743L71.8276 73.9196H65.4457L73.6485 59.5331L65.281 46.1716H71.9577L77.3077 55.0944L82.4148 46.1716H88.8053L80.5766 59.9724L89.0307 73.9196H82.6055Z" fill="black"/>
<path d="M109.781 64.4933C109.781 70.5975 105.445 74.3954 99.7136 74.3954C94.6845 74.3954 90.4444 71.4669 90.0369 65.0881H95.4822C95.8551 67.8337 97.9621 69.0509 100.251 69.0509C103.104 69.0509 104.335 67.0283 104.335 64.411C104.335 61.7936 102.419 59.9724 99.757 59.9724C98.9077 59.926 98.0615 60.1133 97.3015 60.516C96.5415 60.9187 95.8936 61.5229 95.4215 62.2694H90.219L92.0224 46.1716H109.113L108.541 51.562H96.2973L95.8117 56.8882C95.8117 56.8882 97.095 55.2958 101.014 55.2958C105.688 55.2958 109.781 58.6179 109.781 64.4933Z" fill="black"/>
<path d="M90.6785 42.7214C87.7824 30.8242 78.5392 22.3955 59.4631 22.3955L36.4158 22.3955L39.546 44.7348C41.8958 64.8685 49.2054 71.3846 62.1338 73.7731C62.1938 73.7907 62.2571 73.7922 62.3178 73.7774C62.3784 73.7625 62.4347 73.7318 62.4812 73.6882C62.5278 73.6444 62.5633 73.5891 62.5844 73.5272C62.6055 73.4654 62.6115 73.3988 62.602 73.3338C62.6043 73.2477 62.5813 73.1628 62.5363 73.0907C62.4914 73.0188 62.4265 72.9631 62.3505 72.9312C53.6103 69.0509 52.6131 56.3116 50.7489 43.536L49.3008 33.3501H62.4633C74.6026 33.3501 83.9759 33.1487 89.9069 43.0417C89.9482 43.1123 90.0056 43.1709 90.0736 43.2124C90.1417 43.254 90.2184 43.277 90.297 43.2796C90.3509 43.2797 90.4042 43.2683 90.4538 43.2459C90.5033 43.2237 90.5481 43.191 90.5854 43.15C90.6227 43.1089 90.6517 43.0603 90.6707 43.0071C90.6896 42.9539 90.6982 42.8972 90.6959 42.8403C90.695 42.8002 90.6891 42.7601 90.6785 42.7214Z" fill="#5FAF2D"/>
<path d="M122.241 46.1716H125.995V73.9196H122.241V46.1716Z" fill="black"/>
<path d="M132.524 46.1715H143.605C146.168 46.1212 148.704 46.7206 151.002 47.9196C153.082 49.0118 154.822 50.711 156.014 52.8157C157.184 55.0265 157.8 57.5172 157.8 60.0501C157.8 62.583 157.184 65.0737 156.014 67.2845C154.822 69.3892 153.082 71.0885 151.002 72.1808C148.703 73.3764 146.167 73.9727 143.605 73.9196H132.524V46.1715ZM143.38 70.4785C145.322 70.5223 147.246 70.0736 148.99 69.1698C150.544 68.3549 151.841 67.0837 152.727 65.5092C153.592 63.8375 154.045 61.9636 154.045 60.0593C154.045 58.1549 153.592 56.281 152.727 54.6094C151.841 53.0348 150.544 51.7637 148.99 50.9487C147.246 50.0449 145.322 49.5962 143.38 49.6401H136.278V70.4968L143.38 70.4785Z" fill="black"/>
</g>
</g>
<defs>
<filter id="filter0_d_202:139" x="-3.71436" y="0.916016" width="178.348" height="100.084" filterUnits="userSpaceOnUse" color-interpolation-filters="sRGB">
<feFlood flood-opacity="0" result="BackgroundImageFix"/>
<feColorMatrix in="SourceAlpha" type="matrix" values="0 0 0 0 0 0 0 0 0 0 0 0 0 0 0 0 0 0 127 0" result="hardAlpha"/>
<feOffset dy="2"/>
<feGaussianBlur stdDeviation="4"/>
<feComposite in2="hardAlpha" operator="out"/>
<feColorMatrix type="matrix" values="0 0 0 0 0 0 0 0 0 0 0 0 0 0 0 0 0 0 0.15 0"/>
<feBlend mode="normal" in2="BackgroundImageFix" result="effect1_dropShadow_202:139"/>
<feBlend mode="normal" in="SourceGraphic" in2="effect1_dropShadow_202:139" result="shape"/>
</filter>
<clipPath id="clip0_202:139">
<rect width="121.727" height="52" fill="white" transform="translate(36.4158 22.3955)"/>
</clipPath>
</defs>
</svg>
