<svg width="34" height="34" viewBox="0 0 34 34" fill="none" xmlns="http://www.w3.org/2000/svg">
<path fill-rule="evenodd" clip-rule="evenodd" d="M16.9999 2.48846C8.98544 2.48846 2.4884 8.9855 2.4884 17C2.4884 25.0145 8.98544 31.5115 16.9999 31.5115C25.0144 31.5115 31.5115 25.0145 31.5115 17C31.5115 8.9855 25.0144 2.48846 16.9999 2.48846ZM0.988403 17C0.988403 8.15707 8.15701 0.988461 16.9999 0.988461C25.8429 0.988461 33.0115 8.15707 33.0115 17C33.0115 25.8429 25.8429 33.0115 16.9999 33.0115C8.15701 33.0115 0.988403 25.8429 0.988403 17ZM16.9847 14.5246C16.7239 14.5287 16.4753 14.6361 16.2936 14.8232C16.1119 15.0104 16.0118 15.2619 16.0154 15.5227V22.4151C16.0136 22.5455 16.0377 22.6751 16.0863 22.7961C16.135 22.9172 16.2072 23.0274 16.2988 23.1203C16.3904 23.2132 16.4996 23.287 16.62 23.3374C16.7404 23.3878 16.8696 23.4137 17 23.4137C17.1305 23.4137 17.2597 23.3878 17.3801 23.3374C17.5005 23.287 17.6096 23.2132 17.7012 23.1203C17.7929 23.0274 17.8651 22.9172 17.9137 22.7961C17.9624 22.6751 17.9865 22.5455 17.9847 22.4151V15.5227C17.9865 15.391 17.9618 15.2603 17.9122 15.1382C17.8625 15.0162 17.7889 14.9054 17.6957 14.8123C17.6024 14.7192 17.4915 14.6458 17.3693 14.5964C17.2472 14.547 17.1164 14.5226 16.9847 14.5246H16.9847ZM17.985 10.6C17.985 11.1438 17.5442 11.5846 17.0004 11.5846C16.4566 11.5846 16.0158 11.1438 16.0158 10.6C16.0158 10.0562 16.4566 9.61538 17.0004 9.61538C17.5442 9.61538 17.985 10.0562 17.985 10.6Z" fill="#D4DBE0"/>
</svg>
