<svg width="48" height="48" viewBox="0 0 48 48" fill="none" xmlns="http://www.w3.org/2000/svg">
<path d="M43.3175 31.708C44.9792 31.708 46.0989 30.0082 45.4428 28.4815L40.564 17.1283C40.199 16.2788 39.3633 15.7283 38.4387 15.7283L33.1566 15.7283C31.8791 15.7283 30.8434 16.764 30.8434 18.0416L30.8434 29.3948C30.8434 30.6724 31.8791 31.708 33.1566 31.708L43.3175 31.708Z" stroke="#1DB8FB" stroke-width="1.54217"/>
<rect x="3.4707" y="22.3055" width="25.4458" height="4.52177" rx="2.26089" fill="url(#paint0_linear_2101_12804)"/>
<rect x="4.62695" y="27.9579" width="24.2892" height="4.52177" rx="2.26089" fill="url(#paint1_linear_2101_12804)"/>
<mask id="mask0_2101_12804" style="mask-type:alpha" maskUnits="userSpaceOnUse" x="10" y="33" width="8" height="5">
<rect x="10.4102" y="33.6096" width="6.93976" height="3.39133" fill="#C4C4C4"/>
</mask>
<g mask="url(#mask0_2101_12804)">
<rect x="10.4102" y="30.2183" width="6.93976" height="6.78266" rx="3.39133" fill="#1DB8FB"/>
</g>
<mask id="mask1_2101_12804" style="mask-type:alpha" maskUnits="userSpaceOnUse" x="32" y="33" width="8" height="5">
<rect x="32.3848" y="33.6096" width="6.93976" height="3.39133" fill="#C4C4C4"/>
</mask>
<g mask="url(#mask1_2101_12804)">
<rect x="32.3848" y="30.2183" width="6.93976" height="6.78266" rx="3.39133" fill="#1DB8FB"/>
</g>
<rect x="2.3125" y="16.6533" width="26.6024" height="4.52177" rx="2.26089" fill="url(#paint2_linear_2101_12804)"/>
<path d="M0 13.2619C0 12.0132 1.01223 11.001 2.26089 11.001H26.6548C27.9034 11.001 28.9157 12.0132 28.9157 13.2619C28.9157 14.5105 27.9034 15.5228 26.6548 15.5228H2.26089C1.01224 15.5228 0 14.5105 0 13.2619Z" fill="#01D8FF"/>
<defs>
<linearGradient id="paint0_linear_2101_12804" x1="4.43092" y1="24.8894" x2="15.8998" y2="37.766" gradientUnits="userSpaceOnUse">
<stop stop-color="#1ABAFB"/>
<stop offset="1" stop-color="#6C6BEA"/>
</linearGradient>
<linearGradient id="paint1_linear_2101_12804" x1="5.54353" y1="30.5418" x2="17.0617" y2="42.8859" gradientUnits="userSpaceOnUse">
<stop stop-color="#1ABAFB"/>
<stop offset="1" stop-color="#6C6BEA"/>
</linearGradient>
<linearGradient id="paint2_linear_2101_12804" x1="3.31637" y1="19.2372" x2="14.7156" y2="32.6173" gradientUnits="userSpaceOnUse">
<stop stop-color="#1ABAFB"/>
<stop offset="1" stop-color="#6C6BEA"/>
</linearGradient>
</defs>
</svg>
