<svg width="48" height="48" viewBox="0 0 48 48" fill="none" xmlns="http://www.w3.org/2000/svg">
<path d="M24.9531 4.00114C24.9531 3.44886 24.5054 3.00114 23.9531 3.00114C23.4008 3.00114 22.9531 3.44886 22.9531 4.00114L24.9531 4.00114ZM22.9531 17.3345L22.9531 18.3345L24.9531 18.3345L24.9531 17.3345L22.9531 17.3345ZM22.9531 4.00114L22.9531 17.3345L24.9531 17.3345L24.9531 4.00114L22.9531 4.00114Z" fill="#1DB8FB"/>
<path d="M34.3018 5.4681C34.4774 4.9445 34.1872 4.40481 33.6535 4.26268C33.1198 4.12055 32.5448 4.4298 32.3691 4.9534L34.3018 5.4681ZM28.1411 17.5561L27.823 18.5042L29.7557 19.0189L30.0737 18.0708L28.1411 17.5561ZM32.3691 4.9534L28.1411 17.5561L30.0737 18.0708L34.3018 5.4681L32.3691 4.9534Z" fill="#1DB8FB"/>
<mask id="mask0_2101_12972" style="mask-type:alpha" maskUnits="userSpaceOnUse" x="4" y="27" width="40" height="18">
<rect x="4.09375" y="27.1123" width="39.9065" height="16.8889" fill="#C4C4C4"/>
</mask>
<g mask="url(#mask0_2101_12972)">
<path d="M38.8373 10.0565C40.6532 10.0565 42.0528 11.6572 41.8104 13.457L38.1585 40.5718C37.958 42.0605 36.6874 43.1714 35.1853 43.1714L12.2271 43.1714C10.725 43.1714 9.4544 42.0605 9.2539 40.5718L5.60196 13.457C5.35957 11.6572 6.75915 10.0565 8.57512 10.0565L38.8373 10.0565Z" stroke="#1DB8FB" stroke-width="2"/>
</g>
<rect x="4" y="20.001" width="39.4118" height="5.61838" rx="2.80919" fill="url(#paint0_linear_2101_12972)"/>
<defs>
<linearGradient id="paint0_linear_2101_12972" x1="3.87973" y1="23.2115" x2="18.4225" y2="42.5619" gradientUnits="userSpaceOnUse">
<stop stop-color="#6C6BEA"/>
<stop offset="1" stop-color="#1ABAFB"/>
</linearGradient>
</defs>
</svg>
