<svg width="48" height="48" viewBox="0 0 48 48" fill="none" xmlns="http://www.w3.org/2000/svg">
<path d="M0 8C0 3.58172 3.58172 0 8 0H40C44.4183 0 48 3.58172 48 8V40C48 44.4183 44.4183 48 40 48H8C3.58172 48 0 44.4183 0 40V8Z" fill="#EA003D"/>
<path d="M26.8736 32.3146L29.4205 27.9625H24.3267L26.8736 32.3146Z" fill="white"/>
<path d="M20.6035 32.3146L23.1505 27.9625H18.0566L20.6035 32.3146Z" fill="white"/>
<path d="M23.7388 28.1572L26.2857 32.5094H21.1919L23.7388 28.1572Z" fill="white"/>
<path d="M30.0735 26.8582L32.6204 22.506H27.5266L30.0735 26.8582Z" fill="white"/>
<path d="M27.0037 22.8957L29.5506 27.2479H24.4568L27.0037 22.8957Z" fill="white"/>
<path d="M17.4041 26.8582L14.8572 22.506H19.951L17.4041 26.8582Z" fill="white"/>
<path d="M20.4732 22.8957L17.9263 27.2479H23.0201L20.4732 22.8957Z" fill="white"/>
<path d="M12.3755 24L8 21.4666V26.5333L12.3755 24Z" fill="white"/>
<path d="M12.3755 30.5608L8 28.0274V33.0941L12.3755 30.5608Z" fill="white"/>
<path d="M8 27.3129L12.3755 24.7795V29.8463L8 27.3129Z" fill="white"/>
<path d="M12.3755 17.4392L8 14.9059V19.9726L12.3755 17.4392Z" fill="white"/>
<path d="M40 24L35.6245 21.4666V26.5333L40 24Z" fill="white"/>
<path d="M40 30.5608L35.6245 28.0274V33.0941L40 30.5608Z" fill="white"/>
<path d="M35.6245 27.3129L40 24.7795V29.8463L35.6245 27.3129Z" fill="white"/>
<path d="M40 17.4392L35.6245 14.9059V19.9726L40 17.4392Z" fill="white"/>
</svg>
