<svg width="48" height="48" viewBox="0 0 48 48" fill="none" xmlns="http://www.w3.org/2000/svg">
<path d="M0 8C0 3.58172 3.58172 0 8 0H40C44.4183 0 48 3.58172 48 8V40C48 44.4183 44.4183 48 40 48H8C3.58172 48 0 44.4183 0 40V8Z" fill="white"/>
<path d="M22.7543 22.9722L23.5355 22.3925H20.9165V25.8584H23.5355V25.2787H21.6648V24.3947H23.26V23.8191H21.6648V22.9722H22.7543Z" fill="#21A038"/>
<path d="M18.811 25.2787H18.0298V24.3207H18.811C19.2838 24.3207 19.5058 24.481 19.5058 24.8017C19.5058 25.1265 19.2715 25.2787 18.811 25.2787ZM18.9426 23.7451H18.0339V22.9721H19.4853L20.2664 22.3965H17.2856V25.8584H18.848C19.7237 25.8584 20.2253 25.4637 20.2253 24.7689C20.2212 24.1069 19.7648 23.7451 18.9426 23.7451Z" fill="#21A038"/>
<path d="M25.6448 24.3002H24.9829V22.9722H25.6448C26.1217 22.9722 26.389 23.2065 26.389 23.6382C26.3849 24.0617 26.1217 24.3002 25.6448 24.3002ZM25.6571 22.3925H24.2305V25.8543H24.9788V24.8717H25.6571C26.5658 24.8717 27.1331 24.3947 27.1331 23.63C27.1331 22.8694 26.5699 22.3925 25.6571 22.3925Z" fill="#21A038"/>
<path d="M16.0034 25.106C15.8102 25.2129 15.5881 25.2664 15.3579 25.2664C14.6836 25.2664 14.1944 24.7853 14.1944 24.1234C14.1944 23.4614 14.6836 22.9804 15.3579 22.9804C15.6128 22.9804 15.843 23.0503 16.0363 23.1942L16.5708 22.7995L16.5338 22.7666C16.2213 22.4911 15.8019 22.3472 15.325 22.3472C14.807 22.3472 14.3341 22.524 14.0011 22.8406C13.664 23.1613 13.4749 23.6094 13.4749 24.1069C13.4749 24.6044 13.6599 25.0608 13.997 25.3897C14.3341 25.7186 14.8029 25.9036 15.3209 25.9036C15.8595 25.9036 16.3282 25.7145 16.6489 25.3733C16.4022 25.1923 16.1637 25.0156 16.1637 25.0156L16.0034 25.106Z" fill="#21A038"/>
<path d="M10.1116 22.1819L10.6714 21.769C10.1794 21.3732 9.55171 21.13 8.86743 21.13V21.7917C9.33116 21.7973 9.76095 21.9387 10.1116 22.1819Z" fill="url(#paint0_linear_1597)"/>
<path d="M11.74 24.0028C11.74 23.8275 11.7231 23.6579 11.6948 23.4882L11.0784 23.9463C11.0784 23.9633 11.0784 23.9859 11.0784 24.0028C11.0784 24.6532 10.7956 25.2357 10.3489 25.6372L10.7956 26.1292C11.3725 25.6089 11.74 24.8455 11.74 24.0028Z" fill="#21A038"/>
<path d="M8.86756 26.2084C8.21721 26.2084 7.63473 25.9256 7.23321 25.4789L6.74121 25.9256C7.26714 26.5081 8.02494 26.8701 8.86756 26.8701V26.2084Z" fill="url(#paint1_linear_1597)"/>
<path d="M7.39142 22.3685L6.94466 21.8765C6.36218 22.4024 6.00024 23.1602 6.00024 24.0028H6.6619C6.6619 23.3581 6.94466 22.77 7.39142 22.3685Z" fill="url(#paint2_linear_1597)"/>
<path d="M6.6619 24.0029C6.6619 23.9633 6.6619 23.9294 6.66755 23.8898L6.0059 23.8558C6.0059 23.9011 6.00024 23.952 6.00024 23.9972C6.00024 24.7889 6.32259 25.5071 6.84286 26.0274L7.31224 25.558C6.91073 25.1622 6.6619 24.6136 6.6619 24.0029Z" fill="url(#paint3_linear_1597)"/>
<path d="M8.86757 21.7973C8.90716 21.7973 8.94109 21.7973 8.98067 21.803L9.0146 21.1413C8.96936 21.1413 8.91847 21.1357 8.87322 21.1357C8.0815 21.1357 7.36329 21.458 6.84302 21.9783L7.3124 22.4477C7.70826 22.0462 8.26247 21.7973 8.86757 21.7973Z" fill="url(#paint4_linear_1597)"/>
<path d="M8.86749 26.2084C8.82791 26.2084 8.79398 26.2084 8.75439 26.2027L8.72046 26.8644C8.7657 26.8644 8.8166 26.87 8.86184 26.87C9.65356 26.87 10.3718 26.5477 10.892 26.0274L10.4227 25.558C10.0268 25.9652 9.47825 26.2084 8.86749 26.2084Z" fill="url(#paint5_linear_1597)"/>
<path d="M11.1393 22.3631C11.275 22.5399 11.3901 22.729 11.4846 22.9346L8.86977 24.8629L7.77612 24.1762V23.354L8.86977 24.0406L11.1393 22.3631Z" fill="#21A038"/>
<path d="M28.7941 22.6474C28.8928 22.5734 29.0408 22.5076 29.234 22.4377C29.4273 22.3719 29.6657 22.3391 29.9412 22.3391C30.1344 22.3391 30.3112 22.3555 30.4716 22.3925C30.6319 22.4254 30.7676 22.4788 30.8786 22.5528C30.9937 22.6227 31.0801 22.7132 31.1417 22.8242C31.2034 22.9311 31.2322 23.0627 31.2322 23.2148C31.2322 23.6136 31.0266 23.885 30.6196 24.033C31.1459 24.1111 31.4131 24.3824 31.4131 24.8429C31.4131 24.9909 31.3843 25.1307 31.3226 25.2623C31.2651 25.3939 31.1746 25.5049 31.0554 25.5994C30.9362 25.694 30.7882 25.768 30.6114 25.8256C30.4346 25.8831 30.229 25.9078 29.9988 25.9078C29.8384 25.9078 29.6945 25.8955 29.5547 25.8708C29.419 25.8461 29.2957 25.8132 29.1847 25.7721C29.0737 25.731 28.9791 25.6858 28.8969 25.6323C28.8147 25.583 28.753 25.5295 28.7078 25.4761V24.7155C28.7612 24.8059 28.827 24.8881 28.9092 24.9622C28.9915 25.0362 29.086 25.1061 29.197 25.1595C29.3039 25.2171 29.4273 25.2582 29.5671 25.2911C29.7027 25.324 29.8507 25.3363 30.0111 25.3363C30.118 25.3363 30.2167 25.324 30.3071 25.3034C30.3976 25.2787 30.4798 25.2458 30.5456 25.2006C30.6114 25.1554 30.6689 25.1019 30.7059 25.0362C30.747 24.9704 30.7635 24.8923 30.7635 24.8018C30.7635 24.6456 30.7018 24.5346 30.5826 24.4606C30.4634 24.3866 30.266 24.3537 29.9946 24.3537H29.4684V23.8438H29.9988C30.1098 23.8438 30.2043 23.8315 30.2824 23.8068C30.3565 23.7822 30.4181 23.7493 30.4675 23.7041C30.5127 23.6629 30.5456 23.6136 30.5703 23.556C30.5908 23.4985 30.6031 23.4409 30.6031 23.371C30.6031 23.2929 30.5867 23.223 30.5538 23.1655C30.5209 23.1079 30.4757 23.0627 30.414 23.0257C30.3565 22.9887 30.2866 22.964 30.2043 22.9434C30.1262 22.927 30.0399 22.9147 29.9453 22.9105C29.8137 22.9064 29.6904 22.9229 29.5712 22.9558C29.4519 22.9887 29.345 23.0339 29.2505 23.0914C29.1518 23.149 29.0655 23.2148 28.9873 23.2888C28.9092 23.3628 28.8476 23.4368 28.7982 23.5108V22.6474H28.7941Z" fill="#5AB0FF"/>
<path d="M32.0256 25.8584V22.3925H33.5304C34.3075 22.3925 34.6981 22.6803 34.6981 23.2559C34.6981 23.4532 34.657 23.6177 34.5747 23.7492C34.4925 23.8808 34.3609 23.9836 34.1841 24.0494C34.3979 24.0864 34.5542 24.1686 34.6529 24.3043C34.7515 24.44 34.8009 24.6167 34.8009 24.847C34.8009 25.0238 34.768 25.18 34.7063 25.3075C34.6446 25.4349 34.5542 25.5418 34.4349 25.6199C34.3157 25.7022 34.1759 25.7597 34.0074 25.7967C33.8388 25.8337 33.6497 25.8543 33.44 25.8543H32.0256V25.8584ZM33.44 23.8561C33.6373 23.8561 33.7936 23.815 33.9087 23.7328C34.0238 23.6506 34.0814 23.5354 34.0814 23.3874C34.0814 23.2476 34.032 23.1449 33.9333 23.0708C33.8347 22.9968 33.6784 22.9639 33.4564 22.9639H32.6465V23.8602H33.44V23.8561ZM33.4852 25.2869C33.7237 25.2869 33.8963 25.2499 34.0115 25.1718C34.1225 25.0937 34.18 24.9703 34.18 24.8018C34.18 24.6332 34.1225 24.514 34.0032 24.4441C33.884 24.3742 33.7154 24.3413 33.4975 24.3413H32.6465V25.2869H33.4852Z" fill="#5AB0FF"/>
<path d="M36.1737 25.3116C36.2395 25.3116 36.3011 25.2952 36.3505 25.2664C36.4039 25.2376 36.4492 25.1842 36.4903 25.1019L34.9731 22.3884H35.6926L36.8068 24.3989L37.7196 22.3884H38.3692L37.0988 25.1307C37.0289 25.2828 36.959 25.4062 36.8891 25.5048C36.8192 25.6035 36.7493 25.6816 36.6753 25.7392C36.6013 25.7968 36.5273 25.8379 36.4492 25.8625C36.371 25.8872 36.2888 25.8954 36.1984 25.8954C36.1202 25.8954 36.0421 25.8872 35.9722 25.8708C35.9023 25.8543 35.8407 25.8379 35.7954 25.8173V25.1718C35.8407 25.2129 35.8982 25.2499 35.964 25.2746C36.0298 25.2993 36.0997 25.3116 36.1737 25.3116Z" fill="#5AB0FF"/>
<path d="M39.4013 25.8584H38.7805V22.3925H39.4013V23.8479H39.9194L41.0336 22.3925H41.786L40.4662 24.0411L41.9998 25.8584H41.2104L39.9523 24.3577H39.4013V25.8584Z" fill="#5AB0FF"/>
<defs>
<linearGradient id="paint0_linear_1597" x1="8.73149" y1="21.5533" x2="10.4327" y2="22.0766" gradientUnits="userSpaceOnUse">
<stop offset="0.0566" stop-color="#0291EB"/>
<stop offset="0.79" stop-color="#0C8ACB"/>
</linearGradient>
<linearGradient id="paint1_linear_1597" x1="6.90945" y1="26.0331" x2="8.73646" y2="26.7136" gradientUnits="userSpaceOnUse">
<stop offset="0.1324" stop-color="#F2E913"/>
<stop offset="0.2977" stop-color="#EBE716"/>
<stop offset="0.5306" stop-color="#D9E01F"/>
<stop offset="0.8023" stop-color="#BBD62D"/>
<stop offset="0.9829" stop-color="#A3CD39"/>
</linearGradient>
<linearGradient id="paint2_linear_1597" x1="6.5037" y1="24.0827" x2="7.23597" y2="22.1839" gradientUnits="userSpaceOnUse">
<stop offset="0.0698" stop-color="#A3CD39"/>
<stop offset="0.2599" stop-color="#81C55F"/>
<stop offset="0.9216" stop-color="#0FA8E0"/>
</linearGradient>
<linearGradient id="paint3_linear_1597" x1="6.77442" y1="25.9469" x2="6.0972" y2="23.9956" gradientUnits="userSpaceOnUse">
<stop offset="0.1444" stop-color="#F2E913"/>
<stop offset="0.3037" stop-color="#E7E518"/>
<stop offset="0.5823" stop-color="#CADB26"/>
<stop offset="0.891" stop-color="#A3CD39"/>
</linearGradient>
<linearGradient id="paint4_linear_1597" x1="7.03162" y1="21.9016" x2="8.74825" y2="21.2495" gradientUnits="userSpaceOnUse">
<stop offset="0.0592" stop-color="#0FA8E0"/>
<stop offset="0.5385" stop-color="#0099F9"/>
<stop offset="0.9234" stop-color="#0291EB"/>
</linearGradient>
<linearGradient id="paint5_linear_1597" x1="8.68161" y1="26.3056" x2="10.7271" y2="25.8448" gradientUnits="userSpaceOnUse">
<stop offset="0.1226" stop-color="#A3CD39"/>
<stop offset="0.2846" stop-color="#86C339"/>
<stop offset="0.8693" stop-color="#21A038"/>
</linearGradient>
</defs>
</svg>
