<svg fill="none" height="97" viewBox="0 0 157 97" width="157" xmlns="http://www.w3.org/2000/svg" xmlns:xlink="http://www.w3.org/1999/xlink"><linearGradient id="a"><stop offset="0" stop-color="#eb2316"/><stop offset="1" stop-color="#eb2316"/></linearGradient><linearGradient id="b" gradientUnits="userSpaceOnUse" x1="157" x2="-.000002" xlink:href="#a" y1="49" y2="49"/><linearGradient id="c" gradientUnits="userSpaceOnUse" x1="78.4719" x2="78.4719" xlink:href="#a" y1="0" y2="97"/><mask id="d" height="97" maskUnits="userSpaceOnUse" width="157" x="0" y="0"><rect fill="url(#c)" height="97" rx="10" width="156.944"/></mask><rect fill="url(#b)" height="97" rx="10" width="157"/><g mask="url(#d)"><g fill="#fff" opacity=".25"><path d="m159 4c-4.742 11.8125-16.124 14-32.247 14-1.897 0-3.32 0-5.217 0-1.423 0-3.32 0-4.742 0-1.423 0-2.846 0-3.794 0 2.371-5.25 5.691-8.74999 10.907-10.93748 7.114-3.0625 16.598-3.06252 24.66-3.06252z"/><path d="m163.794 7.46559c-6.995 15.31561-23.315 17.17201-36.838 17.17201-2.798 0-6.062 0-8.393 0l-3.265 13.4591c17.72-14.3873 41.035 0 38.703 21.349-1.865 14.3873-12.123 24.1336-23.315 26.9182-12.123 2.7847-25.18-1.3923-31.2417-13.4591-.4663-1.3923-1.8652-3.7129-2.3315-5.1052l12.5902-3.2488c0 .9282.466 1.3924.932 1.8565 8.394 13.4591 25.647 6.9616 27.512-7.4257 1.865-14.3874-18.186-22.2772-27.512-5.1052l-11.1907-4.6411 5.5957-21.8131c.466-1.3923 1.399-6.0334 1.865-6.4975 6.062-22.27715 26.113-22.74126 41.967-22.74126-6.528-2.78465-13.989-4.17698-21.45-4.17698-31.7081-.46411-56.422 24.13364-56.422 54.76474s24.7139 55.2288 55.49 55.2288c30.775 0 55.489-24.5977 55.489-55.2288.467-16.2438-6.994-31.0952-18.185-41.30561z"/></g></g><path d="m13.376 22h2.064v-9.584h5.072v9.584h2.064v-11.36h-9.2zm10.4852 0h2.192l1.824-2.768h1.056v2.768h2.032v-8.16h-3.664c-1.76 0-2.928.96-2.928 2.64 0 1.168.736 2.064 1.648 2.4v.016s-.176.192-.368.496zm4-4.176c-.832 0-1.456-.432-1.456-1.36s.592-1.296 1.472-1.296h1.056v2.656zm6.9335 4.176h2.016v-6.432h2.704v-1.728h-7.408v1.728h2.688zm9.91-9.504h1.552v-1.856h-1.552zm-2.944 0h1.568v-1.856h-1.568zm-1.824 5.424c0 2.32 1.696 4.272 4.4 4.272 1.168 0 2.448-.432 3.28-1.168l-.8-1.456c-.656.528-1.504.896-2.336.896-1.232 0-2.32-.736-2.448-2.16h5.616c.032-.256.064-.528.064-.784 0-2.16-1.28-3.872-3.616-3.872-2.448 0-4.16 1.76-4.16 4.272zm2.144-1.008c.192-1.04.928-1.728 1.968-1.728.912 0 1.616.64 1.632 1.728zm7.0658 8.288h2.032v-3.456c0-.416-.048-.704-.048-.704h.032c.576.736 1.424 1.152 2.352 1.152 2.144 0 3.728-1.68 3.728-4.272 0-2.528-1.408-4.272-3.616-4.272-1.104 0-2.096.496-2.624 1.376h-.032s.032-.272.032-.576v-.608h-1.856zm1.968-7.232c0-1.808.992-2.576 2.064-2.576 1.184 0 2.016 1.008 2.016 2.56 0 1.616-.928 2.528-2.048 2.528-1.328 0-2.032-1.248-2.032-2.512zm7.1092-.048c0 2.512 2 4.272 4.48 4.272s4.48-1.76 4.48-4.272c0-2.496-2-4.272-4.496-4.272-2.464 0-4.464 1.776-4.464 4.272zm2.064 0c0-1.504 1.088-2.544 2.416-2.544s2.432 1.04 2.432 2.544c0 1.52-1.104 2.544-2.432 2.544s-2.416-1.024-2.416-2.544zm10.5897 1.376c.88 0 1.712-.256 2.208-.528h.032s-.016.24-.016.448v2.784h2.016v-8.16h-2.016v3.248c-.32.224-.88.512-1.584.512-1.072 0-1.392-.592-1.392-1.36v-2.4h-2v2.736c0 1.904 1.184 2.72 2.752 2.72zm6.1763 2.704h2.032v-3.312h1.056l2.144 3.312h2.352l-2.912-4.24v-.032l2.592-3.888h-2.256l-1.984 3.12h-.992v-3.12h-2.032zm7.8242-2.256c0 1.488 1.216 2.448 2.688 2.448 1.104 0 2.08-.608 2.576-1.472h.032s-.048.256-.048.592v.688h1.888v-5.104c0-2.064-1.264-3.248-3.392-3.248-1.216 0-2.528.464-3.2 1.008l.752 1.456c.656-.448 1.472-.784 2.272-.784.848 0 1.536.368 1.536 1.44v.112h-.352c-1.808 0-4.752.416-4.752 2.864zm2.016-.176c0-1.152 1.728-1.296 2.752-1.296h.352v.224c0 .992-.736 2.144-1.872 2.144-.816 0-1.232-.528-1.232-1.072z" fill="#fff"/></svg>
