<svg fill="none" height="46" width="46" xmlns="http://www.w3.org/2000/svg"><g fill="#fff"><path d="m22.854 41.75a3.75 3.75 0 1 0 0-7.5 3.75 3.75 0 0 0 0 7.5z" opacity=".7"/><path d="m22.854 11.75a3.75 3.75 0 1 0 0-7.5 3.75 3.75 0 0 0 0 7.5z" opacity=".2"/><path d="m12.248 37.356a3.75 3.75 0 1 0 0-7.5 3.75 3.75 0 0 0 0 7.5z" opacity=".8"/><path d="m33.46 16.144a3.75 3.75 0 1 0 0-7.5 3.75 3.75 0 0 0 0 7.5z" opacity=".4"/><path d="m7.852 26.752a3.752 3.752 0 1 0 0-7.504 3.752 3.752 0 0 0 0 7.504z" opacity=".9"/><path d="m37.853 26.75a3.75 3.75 0 1 0 0-7.5 3.75 3.75 0 0 0 0 7.5z" opacity=".5"/><path d="m12.248 16.145a3.75 3.75 0 1 0 0-7.5 3.75 3.75 0 0 0 0 7.5z"/><path d="m33.46 37.358a3.75 3.75 0 1 0 0-7.5 3.75 3.75 0 0 0 0 7.5z" opacity=".6"/></g></svg>
