<svg width="48" height="48" viewBox="0 0 48 48" fill="none" xmlns="http://www.w3.org/2000/svg">
<g clip-path="url(#clip0_1651:21777)">
<rect opacity="0.47" width="48" height="48" fill="url(#paint0_linear_1651:21777)"/>
<rect width="48" height="48" fill="#FF0303"/>
<path d="M35.6342 22.1391C35.3482 22.0172 35.0436 21.9609 34.7342 21.9562H34.7201C34.3732 21.9609 34.0357 22.0266 33.717 22.1625C33.4076 22.2937 33.1311 22.4812 32.892 22.7156C32.6529 22.9547 32.4654 23.2312 32.3342 23.5406C32.1982 23.8594 32.1279 24.2016 32.1279 24.5484V24.5531V24.5578C32.1279 24.9141 32.1982 25.2562 32.3389 25.5797C32.4701 25.8937 32.6623 26.175 32.9014 26.4187C33.1404 26.6625 33.4217 26.85 33.7357 26.9859C34.0592 27.1266 34.4014 27.1969 34.7576 27.2016H34.767H34.7717H34.7764H34.7811H34.7857C35.1748 27.1969 35.5498 27.1078 35.9014 26.9391C36.2295 26.7797 36.5154 26.5547 36.7545 26.2781L36.0982 25.7531C35.9342 25.9406 35.742 26.0906 35.5217 26.1984C35.2873 26.3156 35.0295 26.3766 34.767 26.3766C34.5607 26.3766 34.3639 26.3391 34.1717 26.2734C33.9889 26.2078 33.8154 26.1141 33.6607 25.9922C33.5061 25.875 33.3748 25.7297 33.267 25.5703C33.1592 25.4062 33.0748 25.2281 33.0232 25.0359L33.0139 25.0031H37.0451L37.0498 24.2812C37.0498 23.9672 36.9889 23.6625 36.867 23.3719C36.7498 23.0953 36.5811 22.8469 36.3701 22.6312C36.1592 22.425 35.9107 22.2562 35.6342 22.1391ZM33.0045 24.1781L33.0139 24.1453C33.0607 23.9578 33.1357 23.7797 33.2389 23.6156C33.342 23.4562 33.4686 23.3156 33.6186 23.1937C33.7686 23.0766 33.9373 22.9828 34.1154 22.9172C34.3029 22.8516 34.4951 22.8187 34.6967 22.8187C35.067 22.8187 35.4186 22.9547 35.6904 23.2031C35.9623 23.4469 36.1311 23.7844 36.1686 24.15L36.1732 24.1781H33.0045Z" fill="white"/>
<path d="M26.0577 21.9562C24.6139 21.9562 23.442 23.1187 23.428 24.5578V29.6578H24.3092V26.3953C24.7499 26.8594 25.3592 27.1641 26.0342 27.2109C26.0389 27.2109 26.0483 27.2109 26.053 27.2109C27.5014 27.2109 28.678 26.0344 28.678 24.5859C28.678 23.2031 27.6139 22.0734 26.2592 21.9703C26.2499 21.9703 26.2077 21.9656 26.203 21.9656C26.1561 21.9562 26.1092 21.9562 26.0577 21.9562ZM27.7874 24.6562C27.7874 25.6125 27.0139 26.3859 26.0577 26.3859C25.1014 26.3859 24.328 25.6125 24.328 24.6562C24.328 24.6328 24.328 24.6094 24.328 24.5906C24.328 24.5672 24.328 24.5437 24.328 24.525C24.328 23.5687 25.1014 22.7953 26.0577 22.7953C27.0139 22.7953 27.7874 23.5687 27.7874 24.525C27.7874 24.5484 27.7874 24.5719 27.7874 24.5906C27.7874 24.6094 27.7874 24.6328 27.7874 24.6562Z" fill="white"/>
<path d="M14.3014 26.1562V24.0094H17.1373V23.1562H14.3014V21.0562H17.4936V20.1516H13.4014V27.0609H17.742V26.1562H14.3014Z" fill="white"/>
<path d="M23.0391 22.0969H21.9891L20.5922 23.9156L19.1906 22.0969H18.1406L20.0531 24.5812L18.1406 27.0609H19.1906L20.5922 25.2422L21.9891 27.0609H23.0391L21.1266 24.5812L23.0391 22.0969Z" fill="white"/>
<path d="M40.8233 24.5765C40.6733 24.464 40.4999 24.3703 40.2983 24.3047C40.0968 24.2391 39.8905 24.1828 39.6702 24.1406C39.5062 24.1125 39.3468 24.075 39.1968 24.0328C39.0421 23.9906 38.9062 23.9391 38.789 23.8828C38.6718 23.8266 38.578 23.7609 38.5124 23.6859C38.4468 23.6109 38.4093 23.5219 38.4093 23.4141C38.4093 23.3016 38.4374 23.1984 38.4983 23.1094C38.5593 23.0203 38.6343 22.95 38.728 22.889C38.8218 22.8328 38.9249 22.7906 39.0421 22.7625C39.1593 22.7344 39.2765 22.7203 39.389 22.7203C39.4124 22.7203 39.4312 22.7203 39.4546 22.7203C39.8858 22.7344 40.2655 22.9547 40.4999 23.2875L41.1608 22.8422C40.7858 22.3031 40.1624 21.9562 39.4546 21.9562C39.2108 21.9562 38.9812 21.9891 38.7608 22.05C38.5405 22.1156 38.3437 22.2047 38.1655 22.3265C37.9874 22.4484 37.8468 22.5984 37.739 22.7859C37.6312 22.9687 37.5796 23.1844 37.5796 23.4281C37.5796 23.6859 37.6265 23.8922 37.7249 24.0562C37.8233 24.2203 37.9499 24.3516 38.1093 24.4547C38.2687 24.5578 38.4562 24.6422 38.6671 24.7078C38.8827 24.7734 39.103 24.8297 39.3374 24.8766C39.4733 24.9047 39.6046 24.9375 39.7312 24.9703C39.8577 25.0078 39.9749 25.0547 40.0733 25.1156C40.1718 25.1765 40.2515 25.2469 40.3124 25.3359C40.3733 25.4203 40.4015 25.5328 40.4015 25.6687C40.4015 25.8047 40.3687 25.9172 40.3077 26.0156C40.2421 26.114 40.1577 26.1937 40.0499 26.2547C39.9421 26.3203 39.8249 26.3625 39.6937 26.3953C39.5718 26.4234 39.4546 26.4375 39.3374 26.4375C38.7983 26.4375 38.3296 26.1797 38.039 25.7859L37.3687 26.3062C37.8421 26.8547 38.5452 27.2062 39.328 27.2062C39.5718 27.2016 39.8015 27.1734 40.0312 27.1172C40.2702 27.0609 40.4858 26.9672 40.6733 26.8453C40.8608 26.7187 41.0155 26.5594 41.128 26.3578C41.2405 26.1609 41.3015 25.9172 41.3015 25.6312C41.3015 25.3828 41.2593 25.1719 41.1749 25.0031C41.0905 24.8344 40.9733 24.689 40.8233 24.5765Z" fill="white"/>
<path d="M45.4734 25.0031C45.3891 24.8344 45.2719 24.6891 45.1219 24.5766C44.9719 24.4641 44.7984 24.3703 44.5969 24.3047C44.3953 24.2391 44.1891 24.1828 43.9687 24.1406C43.8047 24.1125 43.6453 24.075 43.4953 24.0328C43.3406 23.9906 43.2094 23.9391 43.0922 23.8828C42.975 23.8266 42.8813 23.7609 42.8156 23.6859C42.75 23.6109 42.7125 23.5219 42.7125 23.4141C42.7125 23.3016 42.7406 23.1984 42.8016 23.1094C42.8625 23.0203 42.9375 22.95 43.0312 22.8891C43.125 22.8328 43.2281 22.7906 43.3453 22.7625C43.4625 22.7344 43.5797 22.7203 43.6922 22.7203C43.7156 22.7203 43.7344 22.7203 43.7578 22.7203C44.1891 22.7344 44.5687 22.9547 44.8031 23.2875L45.4641 22.8469H45.4594H45.4641C45.0891 22.3125 44.4656 21.9656 43.7578 21.9656H43.7484C43.5141 21.9656 43.2844 21.9984 43.0641 22.0594C42.8438 22.1203 42.6422 22.2141 42.4687 22.3359C42.2906 22.4578 42.15 22.6078 42.0422 22.7953C41.9344 22.9781 41.8828 23.1938 41.8828 23.4375C41.8828 23.6953 41.9297 23.9016 42.0281 24.0656C42.1219 24.2297 42.2531 24.3609 42.4125 24.4641C42.5719 24.5672 42.7594 24.6516 42.975 24.7172C43.1906 24.7828 43.4109 24.8391 43.6453 24.8859C43.7812 24.9141 43.9125 24.9469 44.0391 24.9797C44.1656 25.0172 44.2828 25.0641 44.3812 25.125C44.4797 25.1859 44.5594 25.2563 44.6203 25.3453C44.6812 25.4297 44.7094 25.5422 44.7094 25.6734C44.7094 25.8094 44.6766 25.9266 44.6109 26.0203C44.5453 26.1141 44.4609 26.1984 44.3531 26.2594C44.2453 26.325 44.1281 26.3719 43.9969 26.4C43.875 26.4281 43.7578 26.4422 43.6406 26.4422H43.6312C43.1016 26.4422 42.6328 26.1844 42.3422 25.7906L41.6719 26.3063C42.1453 26.8547 42.8484 27.2063 43.6312 27.2063V27.2016C43.875 27.2016 44.1047 27.1688 44.3344 27.1172C44.5734 27.0609 44.7891 26.9672 44.9766 26.8453C45.1641 26.7188 45.3187 26.5594 45.4312 26.3578C45.5437 26.1609 45.6047 25.9172 45.6047 25.6313C45.6 25.3828 45.5578 25.1766 45.4734 25.0031Z" fill="white"/>
<path d="M30.2062 22.0875H29.325V24.4547C29.325 24.4922 29.325 24.5297 29.325 24.5719V27.0657H30.2062V24.5766C30.2062 23.6157 30.9843 22.8328 31.9453 22.8328V21.9469C31.2843 21.9469 30.675 22.1953 30.2062 22.6078V22.0875Z" fill="white"/>
<path d="M10.0077 20.1516H9.12646V27.0609H10.0077V20.1516Z" fill="white"/>
<path d="M5.9624 20.1469H5.05303L2.3999 27.061H3.26709L3.90459 25.4016H7.11084L7.74834 27.061H8.61553L5.9624 20.1469ZM4.25146 24.4922L5.50771 21.2157L6.76396 24.4922H4.25146Z" fill="white"/>
<path d="M12.1359 22.1297H11.2546V27.061H12.1359V22.1297Z" fill="white"/>
<path d="M11.7 19.2C11.6765 19.2 11.6625 19.2188 11.6625 19.2375C11.6625 19.95 11.0859 20.5313 10.3781 20.5313C10.3546 20.5313 10.3406 20.55 10.3406 20.5688C10.3406 20.5922 10.3593 20.6063 10.3781 20.6063C11.0859 20.6063 11.6625 21.1875 11.6625 21.9C11.6625 21.9235 11.6812 21.9375 11.7 21.9375C11.7234 21.9375 11.7375 21.9188 11.7375 21.9C11.7421 21.1922 12.314 20.611 13.0218 20.611C13.0453 20.611 13.0593 20.5922 13.0593 20.5734C13.0593 20.55 13.0406 20.536 13.0218 20.536C12.314 20.536 11.7375 19.9547 11.7375 19.2422V19.2375C11.7375 19.2281 11.7328 19.2188 11.7281 19.2094C11.7187 19.2047 11.7093 19.2 11.7 19.2Z" fill="white"/>
<path d="M45.3234 11.1422C45.4359 11.1375 45.5391 11.0718 45.5719 10.9687C45.6094 10.8515 45.6047 10.739 45.5719 10.6406C45.5344 10.5328 45.4312 10.4625 45.3187 10.4578C44.1469 10.4156 43.0359 10.1297 42.0422 9.63746C40.4156 8.89684 39.1031 7.58434 38.3625 5.95778C37.8797 4.97809 37.5938 3.8859 37.5469 2.72809C37.5375 2.54528 37.3875 2.40465 37.2047 2.39996H37.2H37.1953C37.0125 2.39996 36.8625 2.54528 36.8531 2.72809C36.8063 3.8859 36.5203 4.97809 36.0375 5.95778C35.2969 7.58434 33.9844 8.89684 32.3578 9.63746C31.3734 10.1203 30.2766 10.4109 29.1141 10.4578C28.9687 10.4625 28.8375 10.5609 28.8094 10.7062C28.7953 10.7672 28.7953 10.8375 28.8094 10.9078C28.8094 10.9078 28.8094 10.9078 28.8094 10.9125C28.8375 11.0531 28.9688 11.1422 29.1094 11.1515H29.0766C30.2484 11.1937 31.3594 11.4797 32.3531 11.9718C33.9844 12.7031 35.2969 14.0156 36.0375 15.6422C36.5203 16.6218 36.8063 17.714 36.8531 18.8718C36.8625 19.0547 37.0125 19.1953 37.1953 19.2H37.2H37.2047C37.3875 19.2 37.5375 19.0547 37.5469 18.8718C37.5938 17.714 37.8797 16.6218 38.3625 15.6422C39.1031 14.0156 40.4156 12.7031 42.0422 11.9625C43.0266 11.4797 44.1234 11.189 45.2859 11.1422H45.3234Z" fill="white"/>
<path d="M45.3234 11.1422C45.4359 11.1375 45.5391 11.0718 45.5719 10.9687C45.6094 10.8515 45.6047 10.739 45.5719 10.6406C45.5344 10.5328 45.4312 10.4625 45.3187 10.4578C44.1469 10.4156 43.0359 10.1297 42.0422 9.63746C40.4156 8.89684 39.1031 7.58434 38.3625 5.95778C37.8797 4.97809 37.5938 3.8859 37.5469 2.72809C37.5375 2.54528 37.3875 2.40465 37.2047 2.39996H37.2H37.1953C37.0125 2.39996 36.8625 2.54528 36.8531 2.72809C36.8063 3.8859 36.5203 4.97809 36.0375 5.95778C35.2969 7.58434 33.9844 8.89684 32.3578 9.63746C31.3734 10.1203 30.2766 10.4109 29.1141 10.4578C28.9687 10.4625 28.8375 10.5609 28.8094 10.7062C28.7953 10.7672 28.7953 10.8375 28.8094 10.9078C28.8094 10.9078 28.8094 10.9078 28.8094 10.9125C28.8375 11.0531 28.9688 11.1422 29.1094 11.1515H29.0766C30.2484 11.1937 31.3594 11.4797 32.3531 11.9718C33.9844 12.7031 35.2969 14.0156 36.0375 15.6422C36.5203 16.6218 36.8063 17.714 36.8531 18.8718C36.8625 19.0547 37.0125 19.1953 37.1953 19.2H37.2H37.2047C37.3875 19.2 37.5375 19.0547 37.5469 18.8718C37.5938 17.714 37.8797 16.6218 38.3625 15.6422C39.1031 14.0156 40.4156 12.7031 42.0422 11.9625C43.0266 11.4797 44.1234 11.189 45.2859 11.1422H45.3234Z" fill="url(#paint1_linear_1651:21777)" fill-opacity="0.4"/>
<path d="M20.3953 51.7828C19.3593 51.7828 18.5203 50.9438 18.5203 49.9125C18.5203 48.8813 19.3593 48.0422 20.3953 48.0422C28.6265 48.0422 35.3203 41.3438 35.3203 33.1125C35.3203 32.0766 36.1593 31.2422 37.1953 31.2422C38.2312 31.2422 39.0703 32.0813 39.0703 33.1125C39.0656 43.4063 30.689 51.7828 20.3953 51.7828Z" fill="white"/>
</g>
<defs>
<linearGradient id="paint0_linear_1651:21777" x1="3.39115" y1="44.6088" x2="44.6088" y2="3.39115" gradientUnits="userSpaceOnUse">
<stop stop-color="#FF0303"/>
<stop offset="1" stop-color="#FF4E00" stop-opacity="0.0364583"/>
</linearGradient>
<linearGradient id="paint1_linear_1651:21777" x1="28.8" y1="10.8" x2="45.6" y2="10.8" gradientUnits="userSpaceOnUse">
<stop offset="0.00120018" stop-color="#B7D9D9"/>
<stop offset="0.5651" stop-color="#FFF4F1"/>
</linearGradient>
<clipPath id="clip0_1651:21777">
<path d="M0 8C0 3.58172 3.58172 0 8 0H40C44.4183 0 48 3.58172 48 8V40C48 44.4183 44.4183 48 40 48H8C3.58172 48 0 44.4183 0 40V8Z" fill="white"/>
</clipPath>
</defs>
</svg>
