<svg width="48" height="48" viewBox="0 0 48 48" fill="none" xmlns="http://www.w3.org/2000/svg">
<path d="M0 8C0 3.58172 3.58172 0 8 0H40C44.4183 0 48 3.58172 48 8V40C48 44.4183 44.4183 48 40 48H8C3.58172 48 0 44.4183 0 40V8Z" fill="white"/>
<path fill-rule="evenodd" clip-rule="evenodd" d="M24.192 21.9252H23.2601L22.439 26.0739H23.3708L24.192 21.9252Z" fill="#0099B3"/>
<path fill-rule="evenodd" clip-rule="evenodd" d="M22.9571 21.9252H22.0252L20.2895 24.8048L19.7418 21.9252H18.8091L19.598 26.0739H20.4564L22.9571 21.9252Z" fill="#0099B3"/>
<path fill-rule="evenodd" clip-rule="evenodd" d="M27.6801 21.9252H24.6358L24.4739 22.7971H25.533L24.8853 26.0739H25.8172L26.4657 22.7971H27.519L27.6801 21.9252Z" fill="#0099B3"/>
<path fill-rule="evenodd" clip-rule="evenodd" d="M17.6501 21.9252L17.1073 24.6708L15.6798 21.9252H14.8743L14.054 26.0739H14.952L15.4955 23.3226L16.9198 26.0739H17.7277L18.5481 21.9252H17.6501Z" fill="#0099B3"/>
<path fill-rule="evenodd" clip-rule="evenodd" d="M29.8972 21.9252H28.1871L27.366 26.0739H28.2978L28.9463 22.7971H29.7526C29.833 22.7936 29.9132 22.8066 29.9885 22.8352C30.0637 22.8638 30.1324 22.9075 30.1905 22.9637C30.2354 23.0122 30.2694 23.0698 30.2902 23.1328C30.311 23.1957 30.3181 23.2624 30.3111 23.3284C30.2715 23.7448 29.9468 23.9371 29.5238 23.9371H28.8431L29.7196 26.0764H30.6515L30.0691 24.6549C30.777 24.54 31.2182 24.0154 31.2529 23.3067C31.2917 22.5007 30.7043 21.9252 29.8972 21.9252Z" fill="#0099B3"/>
<path d="M31.4265 24.0004C31.4606 23.4196 31.7149 22.8743 32.1366 22.4772C32.5584 22.0801 33.1155 21.8616 33.6926 21.8669C34.9318 21.8669 35.7719 22.8154 35.7034 24.0004C35.6689 24.5813 35.4141 25.1267 34.9919 25.5237C34.5696 25.9206 34.0122 26.1388 33.4348 26.133C32.1948 26.133 31.358 25.1845 31.4265 24.0004ZM34.8384 24.0004C34.8814 23.2926 34.3857 22.7038 33.6372 22.7038C33.2902 22.7022 32.9561 22.8366 32.7054 23.0784C32.4546 23.3203 32.3068 23.6508 32.2931 24.0004C32.251 24.7074 32.745 25.297 33.4935 25.297C33.8406 25.2985 34.1748 25.1643 34.4257 24.9224C34.6766 24.6806 34.8245 24.35 34.8384 24.0004Z" fill="#0099B3"/>
<path fill-rule="evenodd" clip-rule="evenodd" d="M14.0441 21.9252H13.1122L12.291 26.0739H13.2237L14.0441 21.9252Z" fill="#0099B3"/>
</svg>
