<svg width="48" height="48" viewBox="0 0 48 48" fill="none" xmlns="http://www.w3.org/2000/svg">
<mask id="mask0_202" style="mask-type:alpha" maskUnits="userSpaceOnUse" x="0" y="0" width="48" height="48">
<rect width="48" height="48" rx="8" fill="#C4C4C4"/>
</mask>
<g mask="url(#mask0_202)">
<rect width="48" height="48" rx="8" fill="#FCFCFC"/>
<path fill-rule="evenodd" clip-rule="evenodd" d="M28.2792 -2L28.2792 10.3714L28.2878 10.4829C28.3107 10.6278 28.3793 10.7575 28.4937 10.8719C28.5852 10.9634 28.6865 11.0256 28.7975 11.0586L28.8827 11.0778L28.9942 11.0863L32.9123 11.0863L33.0341 11.0784C33.1912 11.057 33.3269 10.993 33.4413 10.8862C33.5367 10.7972 33.6002 10.6913 33.632 10.5684L33.6499 10.4731L33.6558 10.3714L33.6569 -1.98688L34.0618 -1.978L34.8334 -1.95329L35.5565 -1.91944L36.2341 -1.87644C36.7805 -1.83679 37.2824 -1.78765 37.7471 -1.72923L37.7425 -1.66596L37.724 -1.19672L37.7089 -0.428991L37.7006 0.839031L37.7012 1.66288L37.7086 2.66796L37.7194 3.26732L37.729 3.59332C37.8243 6.1482 38.6537 8.08345 40.2171 9.39902C41.7805 10.7146 43.9159 11.3724 46.6232 11.3724C47.7937 11.3724 48.8563 11.2494 49.8112 11.0035C49.8398 11.3 49.8652 11.6106 49.8872 11.9368L49.9271 12.6107L49.9581 13.3289C49.9626 13.4524 49.9667 13.5779 49.9704 13.7054L49.9882 14.4952C49.9927 14.7668 49.9957 15.0469 49.9972 15.3359L49.999 16.2759C48.9898 15.9768 47.8645 15.8273 46.6232 15.8273C43.954 15.8273 41.8234 16.5089 40.2314 17.8722C38.7057 19.1786 37.8761 21.0147 37.7425 23.3805L37.724 23.8498L37.7089 24.6174L37.7006 25.8855L37.7012 26.7094L37.7086 27.7145L37.7194 28.3138L37.729 28.6398C37.8243 31.1947 38.6537 33.1299 40.2171 34.4455C41.7805 35.761 43.9159 36.4188 46.6232 36.4188C47.8258 36.4188 48.9146 36.2891 49.8896 36.0295C49.6919 38.9831 49.2282 40.6611 48.5204 42.1637L48.3384 42.5364L48.1463 42.9055C46.9378 45.1652 45.1644 46.9386 42.9047 48.1471C41.9445 48.6606 40.9876 49.0722 39.7303 49.3757L39.7307 41.6834L39.7252 41.5816C39.7066 41.4175 39.6418 41.2798 39.5306 41.1685C39.4416 41.0796 39.3357 41.0202 39.2128 40.9906L39.1174 40.9739L39.0158 40.9684H31.3227L30.9483 40.9733C29.4673 41.0133 28.1812 41.2929 27.09 41.8121C25.908 42.3745 25.0119 43.161 24.4018 44.1715C23.7917 45.182 23.4866 46.3355 23.4866 47.632C23.4866 48.4903 23.6147 49.2796 23.871 49.9999L15.7759 49.9992C15.5001 49.9992 15.232 49.9979 14.9715 49.9954L14.212 49.9839L13.4954 49.9648C13.3795 49.9609 13.2652 49.9568 13.1525 49.9524L12.4963 49.922L11.8776 49.884C11.6775 49.8701 11.4832 49.855 11.2945 49.8386L10.7446 49.7858C10.1218 49.7199 9.56279 49.6389 9.0525 49.5431L8.62667 49.4574L8.2226 49.3645C8.0913 49.3324 7.96329 49.299 7.83819 49.2645L7.47128 49.1574C7.29186 49.102 7.11822 49.044 6.94918 48.9834L6.61687 48.8588L6.62596 48.5758C6.70223 46.1734 7.8176 44.9723 9.97205 44.9723C10.8681 44.9723 11.5879 45.1582 12.1313 45.53L12.4137 45.7253C12.8509 46.0342 13.3358 46.4239 13.6994 47.0114L13.8158 47.2146C14.138 47.8241 14.4473 47.9035 14.6948 47.9005L14.8045 47.8949L14.9044 47.8875C14.9201 47.8866 14.9354 47.8861 14.9503 47.8861C14.9826 47.8861 15.0367 47.8708 15.1125 47.8402L15.2426 47.783L15.4987 47.654L15.8282 47.4735L16.2311 47.2414L16.8823 46.8517L17.4563 46.4993C17.8616 46.2484 18.1697 45.7979 18.101 45.0866C18.0323 44.3754 16.4326 42.8491 14.9503 41.9831L14.6053 41.7841L14.277 41.6025C13.2025 41.0257 12.2844 40.7305 10.3059 40.6358L10.001 40.6231L9.66785 40.6158L9.34022 40.6179C6.95792 40.6681 5.02205 41.4664 3.58019 42.6986C2.70687 43.4449 2.06129 44.3661 1.64346 45.4621C0.953292 44.6981 0.354186 43.8437 -0.147561 42.9055L-0.339703 42.5364L-0.521741 42.1637C-1.22956 40.6612 -1.69317 38.9831 -1.89072 36.0296C-0.914807 36.2893 0.174061 36.4188 1.37558 36.4188C4.08294 36.4188 6.21354 35.761 7.76741 34.4455C9.32128 33.1299 10.1459 31.1947 10.2412 28.6398L10.2778 27.4775L10.2933 26.762L10.2984 26.1803L10.2942 25.6662L10.2682 24.5352L10.2412 23.6921C10.165 21.1754 9.33082 19.2354 7.73882 17.8722C6.14682 16.5089 4.02574 15.8273 1.37558 15.8273C0.133416 15.8273 -0.992103 15.9749 -2.00098 16.2702L-1.99614 15.0083L-1.98569 14.2813L-1.96831 13.5934L-1.94406 12.9429L-1.91299 12.3278L-1.87506 11.7464C-1.86818 11.6522 -1.86103 11.5593 -1.85358 11.4677L-1.80553 10.9334L-1.75076 10.4281L-1.68929 9.95009C-1.6785 9.87259 -1.66743 9.7961 -1.65607 9.72068L-1.58467 9.28011C-1.55976 9.13713 -1.53374 8.99791 -1.50665 8.86218L-1.42209 8.46514L-1.33101 8.0871L-1.23347 7.72619C-1.21667 7.66737 -1.1996 7.6092 -1.18227 7.55163L-1.07505 7.21315C-1.05665 7.15783 -1.03797 7.103 -1.01903 7.0487L-0.902241 6.72841L-0.779101 6.41796C-0.758054 6.36695 -0.73675 6.31628 -0.715178 6.26589L-0.582623 5.96682L-0.4438 5.67308L-0.298762 5.38274L-0.147561 5.09409C1.06092 2.83438 2.8343 1.06097 5.09397 -0.147531L5.52747 -0.372022L5.81929 -0.513942L6.11547 -0.649673C6.1653 -0.671768 6.21539 -0.693585 6.26577 -0.715158L6.57193 -0.841473C6.62366 -0.861995 6.67575 -0.882256 6.72826 -0.902251L7.04857 -1.01904L7.38054 -1.12944C7.49335 -1.16518 7.60842 -1.19983 7.72605 -1.23343L8.08692 -1.33103L8.46496 -1.42211L8.86202 -1.50664C8.99775 -1.53374 9.13694 -1.55976 9.27992 -1.58466L9.72051 -1.65607C9.79593 -1.66742 9.87236 -1.67849 9.94986 -1.68929L10.4279 -1.75075L10.9332 -1.8055L11.4675 -1.85358L12.0328 -1.8949L12.6308 -1.92938L13.2633 -1.95705L13.9323 -1.97789L14.6395 -1.9918L15.3867 -1.99873L17.9524 -2C17.9324 0.37091 17.746 2.25211 17.3938 3.65124L17.3259 3.90795C16.9064 5.41418 16.1915 6.25309 15.181 6.42468C14.7877 6.50333 14.5567 6.68577 14.4879 6.97205L14.471 7.07134L14.466 7.16824V10.3428L14.4723 10.4365C14.4935 10.5901 14.5677 10.7305 14.6948 10.8576C14.8473 11.0101 15.0189 11.0863 15.2096 11.0863C17.3831 11.0482 19.037 10.6049 20.1715 9.75649C21.3059 8.90804 22.0828 7.58771 22.5023 5.79549C22.8807 4.17844 23.0884 1.97158 23.1254 -0.825076L23.13 -1.29664L23.1314 -2H28.2792ZM34.3828 45.0866L34.3825 49.9686L33.5607 49.9881L32.6833 49.998L31.2056 49.9995C30.5377 49.9622 30.0238 49.7593 29.6639 49.3909C29.2636 48.981 29.0634 48.3946 29.0634 47.632C29.0634 46.8693 29.2731 46.2545 29.6925 45.7874C30.0386 45.402 30.4949 45.1756 31.0616 45.1081L31.2545 45.0915L31.4371 45.0866H34.3828ZM23.9081 15.8273C21.2199 15.8273 19.0892 16.4994 17.5163 17.8435C15.9433 19.1877 15.1092 21.0991 15.0139 23.5777L15.005 23.8766L14.99 24.8675L14.986 25.6291V26.6654L14.9978 28.0343L15.0092 28.5308L15.0139 28.6684C15.1092 31.2042 15.9338 33.1299 17.4877 34.4455C19.0416 35.761 21.1817 36.4188 23.9081 36.4188C25.605 36.4188 27.1255 36.1424 28.4697 35.5894C29.8138 35.0365 30.8767 34.2358 31.6584 33.1871C32.4401 32.1385 32.8501 30.8992 32.8882 29.4692C32.8882 29.2976 32.8262 29.1546 32.7023 29.0402C32.6279 28.9715 32.545 28.9235 32.4535 28.896L32.3591 28.8755L32.259 28.8686H28.198L28.0701 28.873C27.8662 28.8875 27.7086 28.9385 27.5974 29.0259C27.4862 29.1133 27.3948 29.2636 27.3233 29.4767L27.2828 29.6122C27.0349 30.5274 26.6298 31.1756 26.0673 31.557C25.5049 31.9383 24.7852 32.1289 23.9081 32.1289C21.821 32.1289 20.7091 31.0017 20.5723 28.7471L20.5566 28.35L20.5436 27.7292L20.5345 26.6808L20.5356 25.2826L20.5486 24.2036L20.5621 23.7207C20.6383 21.3184 21.7537 20.1172 23.9081 20.1172C24.8042 20.1172 25.524 20.3031 26.0673 20.6749C26.6107 21.0467 27.0159 21.6997 27.2828 22.634C27.3781 22.9199 27.4878 23.1154 27.6117 23.2203C27.6943 23.2902 27.8087 23.3368 27.9549 23.3601L28.0705 23.3732L28.198 23.3775H32.259L32.3591 23.3707C32.4888 23.3524 32.6031 23.2974 32.7023 23.2059C32.8262 23.0915 32.8882 22.9485 32.8882 22.7769C32.8501 21.347 32.4401 20.1077 31.6584 19.059C30.8767 18.0104 29.8138 17.2096 28.4697 16.6567C27.1255 16.1037 25.605 15.8273 23.9081 15.8273ZM46.6232 20.1172C47.6147 20.1172 48.4059 20.4175 48.9969 21.0181C49.588 21.6187 49.9026 22.5386 49.9407 23.7779L49.9836 25.1578L49.9963 25.8315V26.359L49.9784 27.2498L49.9407 28.4682C49.9026 29.7075 49.588 30.6275 48.9969 31.2281C48.4059 31.8286 47.6147 32.1289 46.6232 32.1289C45.6127 32.1289 44.812 31.8286 44.2209 31.2281C43.6693 30.6675 43.3585 29.8287 43.2885 28.7118L43.2717 28.2952L43.2589 27.6903L43.2511 26.9567V25.2493L43.2589 24.533L43.2717 23.9452L43.2772 23.7779C43.3153 22.5386 43.6299 21.6187 44.2209 21.0181C44.812 20.4175 45.6127 20.1172 46.6232 20.1172ZM1.37558 20.1172C2.367 20.1172 3.15825 20.4175 3.74929 21.0181C4.34034 21.6187 4.65492 22.5386 4.69305 23.7779L4.73595 25.1578L4.74867 25.8315V26.359L4.73079 27.2498L4.69305 28.4682C4.65492 29.7075 4.34034 30.6275 3.74929 31.2281C3.15825 31.8286 2.367 32.1289 1.37558 32.1289C0.365084 32.1289 -0.435687 31.8286 -1.02673 31.2281C-1.57837 30.6675 -1.88917 29.8287 -1.95916 28.7118L-1.97593 28.2952L-1.98878 27.6903L-1.99794 26.6836L-1.99794 25.5168L-1.98878 24.533L-1.97593 23.9452L-1.97048 23.7779C-1.93235 22.5386 -1.61777 21.6187 -1.02673 21.0181C-0.435687 20.4175 0.365084 20.1172 1.37558 20.1172ZM6.78536 5.71318C5.27962 5.71318 4.04575 6.91566 4.06666 8.40051C4.04575 9.90627 5.27962 11.1193 6.78536 11.1193C8.21791 11.1193 9.48312 9.90627 9.50403 8.40051C9.48312 6.91566 8.21791 5.71318 6.78536 5.71318ZM48.1463 5.09409C48.373 5.51805 48.5798 5.94138 48.7663 6.39019C48.2059 6.85225 47.4913 7.08244 46.6232 7.08244C45.6127 7.08244 44.812 6.78216 44.2209 6.18157C43.6693 5.62103 43.3585 4.78231 43.2885 3.66537L43.2717 3.2487L43.2589 2.64384L43.2511 1.91028L43.2507 0.269923C43.2512 0.193201 43.2517 0.118265 43.2523 0.0451684C45.3472 1.2466 47.0006 2.95183 48.1463 5.09409Z" fill="#FF5700"/>
</g>
</svg>
