<svg width="48" height="48" viewBox="0 0 48 48" fill="none" xmlns="http://www.w3.org/2000/svg">
<path d="M0 8C0 3.58172 3.58172 0 8 0H40C44.4183 0 48 3.58172 48 8V40C48 44.4183 44.4183 48 40 48H8C3.58172 48 0 44.4183 0 40V8Z" fill="#575756"/>
<path d="M11.9673 32.0001C9.04292 32.0001 6.40436 30.3704 5.10706 27.8499C4.84321 27.3502 5.08507 26.7418 5.63477 26.5679C6.07454 26.4158 6.55827 26.6114 6.75616 27.0242C7.74563 28.9363 9.74654 30.1966 11.9673 30.1966C13.8583 30.1966 15.5734 29.3057 16.6508 27.8716C17.0026 27.4153 17.4863 26.6766 17.4863 25.4815L19.1574 27.1981C19.1574 27.1981 19.0695 27.4371 18.8936 27.763C18.7177 28.0672 18.6517 28.1976 18.5417 28.3714C17.1785 30.566 14.6938 32.0001 11.9673 32.0001Z" fill="#60BB52"/>
<path d="M14.3907 21.8189C13.797 21.4237 12.9834 21.2261 11.9939 21.2261H10.9164V19.7109H14.0388C14.5006 19.7109 14.8964 19.3596 14.8964 18.8985C14.8964 18.4374 14.5006 18.0641 14.0388 18.0641H10.0808C9.61903 18.0641 9.22323 18.4374 9.22323 18.9205V22.0166C9.22323 22.4777 9.59704 22.8729 10.0808 22.8729H12.0378C13.3572 22.8729 13.775 23.4658 13.775 24.1026C13.775 24.7174 13.4451 25.6836 12.0598 25.6836C10.9164 25.6836 10.2347 24.9151 10.1028 24.7833C9.685 24.41 9.26721 24.432 8.98135 24.6735C8.62952 24.9809 8.6735 25.4421 8.89339 25.7714C9.15726 26.1667 10.1688 27.3744 12.0818 27.3744C13.1813 27.3744 14.1268 26.9791 14.7865 26.2765C15.3802 25.6397 15.666 24.8053 15.6001 23.9709C15.5341 23.0486 15.1163 22.302 14.3907 21.8189ZM36.1599 21.1602C35.7421 21.0065 35.3683 20.8967 35.0604 20.8089C34.7086 20.6991 34.4447 20.5893 34.4227 20.5893C34.005 20.4356 33.6751 20.0842 33.851 19.7109C34.0269 19.3596 34.6866 19.2059 36.028 19.7988C36.4238 19.9744 36.7976 19.8207 36.9295 19.667C37.2154 19.3157 37.1054 18.7228 36.5557 18.4374C36.1819 18.1958 35.5222 17.8884 34.1809 17.9982C33.1254 18.086 32.3118 18.8107 32.1579 19.7329C32.0039 20.6112 32.4657 21.248 33.1254 21.6433C33.5872 21.9068 34.5547 22.1922 34.9285 22.302C35.4123 22.4338 35.7861 22.5436 35.852 22.8729C35.874 23.0486 35.7861 23.2682 35.5662 23.4439C35.1924 23.7513 34.3788 23.7952 33.3673 23.1584C33.1694 23.0486 32.7076 22.6753 32.2678 23.0706C31.916 23.378 32.0039 23.905 32.4437 24.3002C32.8395 24.6516 33.7191 25.0468 34.6426 25.0907C35.5882 25.1346 36.2698 24.8272 36.6217 24.5637C37.1054 24.2124 37.4133 23.6195 37.4792 23.0706C37.5892 22.0605 36.9295 21.4457 36.1599 21.1602ZM42.5587 23.3999C42.3608 23.3341 42.1189 23.378 41.943 23.3999C41.7231 23.4439 41.3933 23.4658 41.0854 23.378C40.5797 23.2243 40.3598 23.0047 40.3598 22.5436V19.6012H41.5692C42.031 19.6012 42.4048 19.2498 42.4048 18.8107C42.4048 18.3715 42.031 18.0202 41.5692 18.0202H40.3598V16.8564C40.3598 16.3733 39.964 16 39.5022 16C39.0185 16 38.6447 16.3952 38.6447 16.8564V17.9982H38.2489C37.7871 17.9982 37.4133 18.3495 37.4133 18.7887C37.4133 19.2279 37.7871 19.5792 38.2489 19.5792H38.6447V22.5655C38.6447 23.9709 39.7661 25.1127 41.1954 25.1127C42.6247 25.1127 42.9985 24.6076 42.9985 24.1246C42.9765 23.7732 42.8446 23.5097 42.5587 23.3999ZM28.3318 23.4878C27.3423 23.4878 26.5506 22.7851 26.5506 21.5335C26.5506 20.2819 27.3642 19.5792 28.3318 19.5792C29.3213 19.5792 30.1129 20.2819 30.1129 21.5335C30.1349 22.7851 29.3213 23.4878 28.3318 23.4878ZM28.3318 17.9982C26.4187 17.9982 24.8575 19.5792 24.8575 21.5335C24.8575 23.4878 26.4187 25.0688 28.3318 25.0688C30.2448 25.0688 31.806 23.4878 31.806 21.5335C31.806 19.6012 30.2448 17.9982 28.3318 17.9982ZM20.9654 23.4878C19.844 23.4878 19.0743 22.7192 19.0743 21.5335C19.0743 20.2599 20.0199 19.5792 20.9654 19.5792C21.9549 19.5792 22.7465 20.5014 22.7465 21.5335C22.7465 22.5875 21.9549 23.4878 20.9654 23.4878ZM21.0754 17.9982C20.3937 17.9982 19.5581 18.3935 19.1183 19.0083C19.0963 18.4154 18.7885 18.0202 18.3267 18.0202C17.843 18.0202 17.4691 18.4154 17.4691 18.8765V26.8474C17.4691 27.3305 17.8649 27.7038 18.3267 27.7038C18.7885 27.7038 19.1843 27.3085 19.1843 26.8474V24.2563C19.5141 24.6955 20.3277 25.1127 21.1413 25.1127C23.0544 25.1127 24.4177 23.5097 24.4177 21.5554C24.4397 19.6012 23.0544 17.9982 21.0754 17.9982Z" fill="white"/>
</svg>
