<svg width="48" height="48" viewBox="0 0 48 48" fill="none" xmlns="http://www.w3.org/2000/svg">
<rect width="48" height="48" fill="#043E44"/>
<path d="M24.2317 16.7232L16.9573 24.0024L24.2317 31.284C25.6713 32.7223 27.5051 33.7015 29.5011 34.0978C31.4971 34.4941 33.5658 34.2897 35.4457 33.5105C37.3256 32.7313 38.9323 31.4123 40.0627 29.7201C41.1931 28.0279 41.7964 26.0386 41.7964 24.0036C41.7964 21.9686 41.1931 19.9793 40.0627 18.2871C38.9323 16.595 37.3256 15.2759 35.4457 14.4967C33.5658 13.7175 31.4971 13.5131 29.5011 13.9094C27.5051 14.3057 25.6713 15.2849 24.2317 16.7232Z" fill="white"/>
<path d="M11.0627 24.0024L3.78834 16.7232C3.26504 16.2026 2.68641 15.7406 2.06274 15.3456V32.6616C2.68586 32.2659 3.26441 31.804 3.78834 31.284L11.0627 24.0024Z" fill="white"/>
<path d="M21.284 34.2336L14.0096 26.952L6.73518 34.2336C5.58086 35.3948 4.71939 36.8139 4.22195 38.3739C3.72451 39.9338 3.60536 41.5897 3.87437 43.2048C4.59474 44.0597 5.49307 44.747 6.50661 45.2187C7.52014 45.6905 8.62443 45.9352 9.74237 45.936H23.3024C24.2148 44.0155 24.5106 41.8598 24.1492 39.7646C23.7879 37.6694 22.787 35.7374 21.284 34.2336Z" fill="white"/>
<path d="M6.73612 13.7735L14.0081 21.0551L21.2825 13.7735C22.7848 12.2682 23.7845 10.3349 24.1446 8.23887C24.5046 6.14286 24.2075 3.98677 23.2937 2.06635H9.74093C8.6224 2.06701 7.51752 2.312 6.50353 2.78417C5.48955 3.25634 4.59093 3.9443 3.87052 4.79994C3.60469 6.41573 3.72583 8.07153 4.22396 9.63143C4.72209 11.1913 5.58303 12.6109 6.73612 13.7735Z" fill="white"/>
</svg>
