<svg fill="none" height="29" viewBox="0 0 29 29" width="29" xmlns="http://www.w3.org/2000/svg" xmlns:xlink="http://www.w3.org/1999/xlink"><linearGradient id="a"><stop offset="0" stop-color="#6c6bea"/><stop offset="1" stop-color="#1abafb"/></linearGradient><linearGradient id="b" gradientUnits="userSpaceOnUse" x1="11.2092" x2="17.4538" xlink:href="#a" y1="11.6816" y2="12.8661"/><linearGradient id="c" gradientUnits="userSpaceOnUse" x1="7.62627" x2="19.9973" xlink:href="#a" y1="19.7855" y2="23.3451"/><mask id="d" height="15" maskUnits="userSpaceOnUse" width="15" x="7" y="7"><circle cx="14.5" cy="14.5" fill="#c4c4c4" r="7.5"/></mask><circle cx="14.5" cy="14.5" r="13.25" stroke="#5186f0" stroke-width="1.5"/><g mask="url(#d)"><path d="m14.3926 14.3937c1.7475 0 3.1641-1.4167 3.1641-3.1642 0-1.74745-1.4166-3.16407-3.1641-3.16407s-3.1641 1.41662-3.1641 3.16407c0 1.7475 1.4166 3.1642 3.1641 3.1642z" fill="url(#b)"/><path d="m14.2077 14.8496c-3.4396 0-6.26129 2.4887-6.54144 5.6574 1.66532 1.8303 4.06374 2.9805 6.72664 2.9805 2.4809 0 4.733-.9992 6.3765-2.6147-.0872-3.3416-2.9914-6.0232-6.5617-6.0232z" fill="url(#c)"/></g></svg>