<svg width="20" height="20" viewBox="0 0 20 20" fill="none" xmlns="http://www.w3.org/2000/svg">
<path fill-rule="evenodd" clip-rule="evenodd" d="M7.93125 3.17241C8.83922 1.6092 11.162 1.6092 12.0687 3.17241L18.6916 14.5747C19.5817 16.108 18.4388 18 16.624 18H3.37716C1.56123 18 0.418255 16.108 1.30842 14.5747L7.93125 3.17241ZM11.1869 14.5529C11.1869 14.8577 11.0618 15.1501 10.8392 15.3656C10.6167 15.5812 10.3148 15.7023 9.99999 15.7023C9.68521 15.7023 9.38332 15.5812 9.16074 15.3656C8.93815 15.1501 8.81311 14.8577 8.81311 14.5529C8.81311 14.248 8.93815 13.9557 9.16074 13.7401C9.38332 13.5245 9.68521 13.4034 9.99999 13.4034C10.3148 13.4034 10.6167 13.5245 10.8392 13.7401C11.0618 13.9557 11.1869 14.248 11.1869 14.5529ZM9.99999 5.35747C9.68521 5.35747 9.38332 5.47857 9.16074 5.69413C8.93815 5.90969 8.81311 6.20205 8.81311 6.5069V10.8506C8.81311 11.1554 8.93815 11.4478 9.16074 11.6633C9.38332 11.8789 9.68521 12 9.99999 12C10.3148 12 10.6167 11.8789 10.8392 11.6633C11.0618 11.4478 11.1869 11.1554 11.1869 10.8506V6.5069C11.1869 6.20205 11.0618 5.90969 10.8392 5.69413C10.6167 5.47857 10.3148 5.35747 9.99999 5.35747Z" fill="#FFC700"/>
</svg>
