<svg fill="none" height="97" width="157" xmlns="http://www.w3.org/2000/svg" xmlns:xlink="http://www.w3.org/1999/xlink"><linearGradient id="a" gradientUnits="userSpaceOnUse" x1="157" x2="0" y1="49" y2="49"><stop offset="0" stop-color="#0c4524"/><stop offset="1" stop-color="#008e3c"/></linearGradient><linearGradient id="b" gradientUnits="userSpaceOnUse" x1="78.472" x2="78.472" y1="0" y2="97"><stop offset="0" stop-color="#0c4524"/><stop offset="1" stop-color="#00ff6b"/></linearGradient><mask id="c" height="97" maskUnits="userSpaceOnUse" width="157" x="0" y="0"><rect fill="url(#b)" height="97" rx="9.177" width="156.944"/></mask><rect fill="url(#a)" height="97" rx="9.177" width="157"/><g mask="url(#c)" opacity=".2" stroke="#90c736" stroke-width="11.216"><path d="m142.414 22.53-11.621 11.62-11.622-11.62c-6.358-6.357-6.358-16.383 0-22.74 6.358-6.358 16.886-6.358 23.243 0 6.358 6.357 6.358 16.383 0 22.74zm-23.243 51.674 11.622-11.621 11.621 11.621c6.358 6.358 6.358 16.886 0 23.244-6.357 6.358-16.885 6.358-23.243 0s-6.358-16.886 0-23.243zm37.209-13.964-11.622-11.622 11.622-11.622c6.358-6.357 16.886-6.357 23.243 0 6.358 6.358 6.358 16.886 0 23.244-6.357 6.358-16.885 6.358-23.243 0zm-51.676-23.244 11.622 11.622-11.622 11.622c-6.358 6.358-16.886 6.358-23.244 0-6.339-6.34-6.357-16.824-.056-23.188 6.952-6.51 17.02-6.335 23.3-.056z"/></g><path d="m13.376 22h2.064v-9.584h5.072v9.584h2.064v-11.36h-9.2zm10.742-4.08c0 2.32 1.696 4.272 4.4 4.272 1.168 0 2.448-.432 3.28-1.168l-.8-1.456c-.656.528-1.504.896-2.336.896-1.232 0-2.32-.736-2.448-2.16h5.616c.032-.256.064-.528.064-.784 0-2.16-1.28-3.872-3.616-3.872-2.448 0-4.16 1.76-4.16 4.272zm2.144-1.008c.192-1.04.928-1.728 1.968-1.728.912 0 1.616.64 1.632 1.728zm7.066 8.288h2.032v-3.456c0-.416-.048-.704-.048-.704h.032a2.955 2.955 0 0 0 2.352 1.152c2.144 0 3.728-1.68 3.728-4.272 0-2.528-1.408-4.272-3.616-4.272-1.104 0-2.096.496-2.624 1.376h-.032s.032-.272.032-.576v-.608h-1.856zm1.968-7.232c0-1.808.992-2.576 2.064-2.576 1.184 0 2.016 1.008 2.016 2.56 0 1.616-.928 2.528-2.048 2.528-1.328 0-2.032-1.248-2.032-2.512zm7.11-.048c0 2.32 1.695 4.272 4.4 4.272 1.167 0 2.447-.432 3.28-1.168l-.8-1.456c-.657.528-1.505.896-2.337.896-1.232 0-2.32-.736-2.448-2.16h5.616c.032-.256.064-.528.064-.784 0-2.16-1.28-3.872-3.616-3.872-2.448 0-4.16 1.76-4.16 4.272zm2.143-1.008c.192-1.04.928-1.728 1.968-1.728.912 0 1.616.64 1.632 1.728zm7.066 5.088h2.032v-3.312h1.056l2.144 3.312h2.353l-2.912-4.24v-.032l2.592-3.888h-2.256l-1.984 3.12h-.992v-3.12h-2.032v8.16zm8.527 3.2h2.032v-3.456c0-.416-.048-.704-.048-.704h.032a2.955 2.955 0 0 0 2.352 1.152c2.144 0 3.728-1.68 3.728-4.272 0-2.528-1.408-4.272-3.616-4.272-1.104 0-2.096.496-2.624 1.376h-.032s.032-.272.032-.576v-.608h-1.856zm1.968-7.232c0-1.808.992-2.576 2.064-2.576 1.184 0 2.016 1.008 2.016 2.56 0 1.616-.928 2.528-2.048 2.528-1.328 0-2.032-1.248-2.032-2.512zm11.877-5.472h1.552v-1.856h-1.552zm-2.944 0h1.568v-1.856h-1.568zm-1.824 5.424c0 2.32 1.696 4.272 4.4 4.272 1.168 0 2.448-.432 3.28-1.168l-.8-1.456c-.656.528-1.504.896-2.336.896-1.232 0-2.32-.736-2.448-2.16h5.616c.032-.256.064-.528.064-.784 0-2.16-1.28-3.872-3.616-3.872-2.448 0-4.16 1.76-4.16 4.272zm2.144-1.008c.192-1.04.928-1.728 1.968-1.728.912 0 1.616.64 1.632 1.728zm6.57 1.008c0 2.368 1.728 4.272 4.432 4.272 1.312 0 2.592-.512 3.36-1.328l-.784-1.44c-.608.592-1.536 1.04-2.4 1.04-1.568 0-2.544-1.184-2.544-2.56 0-1.392.976-2.528 2.48-2.528.8 0 1.6.368 2.112.88l.912-1.392c-.784-.848-2.032-1.216-3.136-1.216-2.704 0-4.432 1.952-4.432 4.272zm10.91 4.08h2.016v-6.432h2.704v-1.728h-7.408v1.728h2.688zm5.142-4.08c0 2.512 2 4.272 4.48 4.272s4.48-1.76 4.48-4.272c0-2.496-2-4.272-4.496-4.272-2.464 0-4.464 1.776-4.464 4.272zm2.064 0c0-1.504 1.088-2.544 2.416-2.544s2.432 1.04 2.432 2.544c0 1.52-1.104 2.544-2.432 2.544s-2.416-1.024-2.416-2.544zm8.318 4.08h2.032v-3.312h1.056l2.144 3.312h2.352l-2.912-4.24v-.032l2.592-3.888h-2.256l-1.984 3.12h-.992v-3.12h-2.032z" fill="#fff"/></svg>