<svg width="50" height="32" viewBox="0 0 50 32" fill="none" xmlns="http://www.w3.org/2000/svg">
<path fill-rule="evenodd" clip-rule="evenodd" d="M3.67772 1.92529H47.149C47.8949 1.92529 48.4996 2.52997 48.4996 3.27587V28.931C48.4996 29.6769 47.8949 30.2816 47.149 30.2816H3.67773C2.93182 30.2816 2.32715 29.6769 2.32715 28.931V25.3678H0.827148V28.931C0.827148 30.5054 2.1034 31.7816 3.67773 31.7816H47.149C48.7233 31.7816 49.9996 30.5054 49.9996 28.931V3.27587C49.9996 1.70154 48.7233 0.425293 47.149 0.425293H3.67772C2.10339 0.425293 0.827148 1.70154 0.827148 3.27587V8.26437H2.32715V3.27587C2.32715 2.52997 2.93182 1.92529 3.67772 1.92529Z" fill="#0088FE"/>
<path fill-rule="evenodd" clip-rule="evenodd" d="M36.0055 29.6436C36.0541 29.5673 36.1013 29.4895 36.1469 29.4103L39.123 24.244L33.9724 21.2334C31.1313 19.5894 27.5 20.5698 25.8553 23.4248C24.7054 25.421 24.8376 27.8194 25.9923 29.6436H27.5382C26.178 28.157 25.8618 25.883 26.9234 24.0401C28.2296 21.7728 31.1058 21.0005 33.3527 22.299L33.355 22.3003L37.4434 24.6901L35.0788 28.795C34.8993 29.1066 34.6901 29.39 34.457 29.6436H36.0055ZM47.4782 29.304C47.1432 28.9831 46.7655 28.6972 46.3474 28.4552L42.2611 26.0668L41.1968 25.4447L40.5861 26.5155L38.8023 29.6436H40.2213L41.6504 27.1376L45.7253 29.5195L45.73 29.5222C45.7975 29.5612 45.8636 29.6017 45.9284 29.6436H46.6286C46.9579 29.6436 47.2571 29.5145 47.4782 29.304ZM47.8612 15.8068C46.8659 16.3129 46.0003 17.1056 45.3997 18.1482L42.4332 23.3502L47.5742 26.3251C47.6691 26.38 47.7648 26.4319 47.8612 26.481V25.067L44.1108 22.8968L46.4679 18.7635L46.4691 18.7614C46.8293 18.1368 47.3087 17.6258 47.8612 17.2404V15.8068ZM37.3196 13.0276L37.3198 13.0277L37.3204 13.0278L37.3207 13.0279L37.3212 13.0281L37.3219 13.0283L38.3579 13.3763L38.8226 12.3934L38.8235 12.3914C38.8271 12.3844 38.8351 12.3692 38.8476 12.3469C38.8725 12.3022 38.9146 12.231 38.9739 12.1434C39.0946 11.9654 39.2756 11.7363 39.5159 11.525C39.9745 11.1218 40.6335 10.7842 41.6152 10.9799C42.4274 11.1418 42.9033 11.6957 43.0487 12.6765C43.2026 13.7145 42.9285 15.09 42.219 16.3463L39.862 20.4379L35.7899 18.0817C34.5973 17.3915 33.7284 16.34 33.3298 15.3384C32.9215 14.3125 33.0788 13.6014 33.4331 13.2212C33.8278 12.7977 34.6069 12.6236 35.6282 12.7028C36.0938 12.7389 36.525 12.8219 36.8429 12.8975C37.0002 12.9349 37.1259 12.9695 37.2094 12.9939C37.251 13.0061 37.2819 13.0156 37.3007 13.0216L37.3196 13.0276ZM40.9289 21.0553L43.2897 16.9572C44.9248 14.0664 44.7415 10.3461 41.8561 9.77099C38.9708 9.19584 37.7117 11.8589 37.7117 11.8589C37.7117 11.8589 34.1367 10.6581 32.5313 12.3808C30.9259 14.1035 32.3315 17.5046 35.1726 19.1486L39.2467 21.5061L40.3136 22.1234L40.3137 22.1234L40.9289 21.0553Z" fill="#0088FE"/>
</svg>
