<svg width="35" height="35" viewBox="0 0 35 35" fill="none" xmlns="http://www.w3.org/2000/svg">
<path fill-rule="evenodd" clip-rule="evenodd" d="M29.2182 7.76437H27.9553L27.7401 9.00879L27.6959 9.26437H29.2229C29.7257 9.26316 30.1609 9.06923 30.5287 8.68257C30.8976 8.2947 31.082 7.83027 31.082 7.28929C31.082 6.74831 30.8976 6.28899 30.5287 5.91133C30.1598 5.53367 29.723 5.34483 29.2182 5.34483V3.84483V3.38506C29.2182 2.83388 29.0337 2.36945 28.6648 1.99179C28.296 1.61412 27.8591 1.42529 27.3543 1.42529H8.71596C8.19175 1.42529 7.75006 1.61412 7.39088 1.99179C7.03171 2.36945 6.85212 2.83388 6.85212 3.38506V3.84483V5.34483C6.32791 5.34483 5.88622 5.53367 5.52705 5.91133C5.16787 6.28899 4.98828 6.74831 4.98828 7.28929C4.98828 7.83027 5.16787 8.2947 5.52705 8.68257C5.88622 9.07044 6.32791 9.26437 6.85212 9.26437L10.5798 30.8218C10.6575 31.3118 10.8662 31.7609 11.2059 32.1692C11.5457 32.5775 11.9583 32.7816 12.4436 32.7816H23.6267C24.112 32.7816 24.5246 32.5775 24.8644 32.1692C25.2041 31.7609 25.4128 31.3118 25.4905 30.8218L26.2607 26.3678H24.7384L24.0124 30.5663L24.0106 30.5766L24.009 30.587C23.9766 30.7913 23.8911 30.9937 23.7114 31.2097C23.6745 31.254 23.6497 31.2738 23.6392 31.2812C23.6362 31.2814 23.6321 31.2816 23.6267 31.2816H12.4436C12.4382 31.2816 12.434 31.2814 12.4311 31.2812C12.4205 31.2738 12.3958 31.254 12.3589 31.2097C12.1792 30.9937 12.0937 30.7913 12.0613 30.587L12.0597 30.5766L12.0579 30.5663L8.33018 9.00879L8.115 7.76437H6.85212C6.74973 7.76437 6.70566 7.74765 6.62764 7.6634C6.53179 7.5599 6.48828 7.46214 6.48828 7.28929C6.48828 7.11693 6.53093 7.03237 6.61398 6.94505C6.68814 6.86707 6.7361 6.84483 6.85212 6.84483H8.35212V5.34483V3.38506C8.35212 3.19427 8.40018 3.10714 8.47781 3.02551C8.55198 2.94753 8.59993 2.92529 8.71596 2.92529H27.3543C27.4349 2.92529 27.4907 2.9364 27.5918 3.0399C27.6739 3.12393 27.7182 3.20643 27.7182 3.38506V5.34483V6.84483H29.2182C29.2988 6.84483 29.3545 6.85594 29.4556 6.95944C29.5433 7.04925 29.582 7.12922 29.582 7.28929C29.582 7.45004 29.5423 7.5431 29.4417 7.64884C29.3369 7.7591 29.2851 7.76437 29.2182 7.76437Z" fill="#0088FE"/>
</svg>
