<svg width="119" height="20" viewBox="0 0 119 20" fill="none" xmlns="http://www.w3.org/2000/svg">
<path d="M24.4446 0.256008H7.25684V6.91612H24.4446V0.256008Z" fill="url(#paint0_linear)"/>
<path d="M0.177246 19.5677V6.92921L7.25689 0.24287V19.5546H0.177246V19.5677Z" fill="url(#paint1_linear)"/>
<path d="M31.5375 19.5677V6.92921L24.4316 0.24287V19.5546H31.5375V19.5677Z" fill="url(#paint2_linear)"/>
<path d="M38.6436 6.9161H50.9936V19.5546H47.4407V10.2068H42.1965V19.5546H38.6436V6.9161Z" fill="black"/>
<path d="M63.0941 6.91615H66.647V19.5546H63.0941V17.7323C62.6221 18.414 61.9928 18.9384 61.2717 19.3186C60.5507 19.6857 59.7378 19.8824 58.9119 19.8693C55.4245 19.8693 52.8286 17.1554 52.8286 13.2485C52.8286 9.34158 55.372 6.56216 58.9905 6.56216C60.6162 6.56216 62.2288 7.27013 63.0941 8.56806V6.91615ZM62.9761 13.2616C62.9761 12.829 62.8974 12.3963 62.7401 11.9899C62.5828 11.5835 62.3337 11.2164 62.0321 10.9148C61.7306 10.6133 61.3504 10.3511 60.9571 10.1938C60.5507 10.0102 60.118 9.93155 59.6854 9.93155C58.8201 9.95777 57.9941 10.338 57.391 10.9542C56.788 11.5835 56.4602 12.4225 56.4602 13.2878C56.4602 14.1531 56.8011 14.9922 57.4173 15.6084C58.0335 16.2377 58.8594 16.5917 59.7247 16.6048C60.59 16.5917 61.4291 16.2377 62.0452 15.6084C62.6352 14.966 62.9761 14.1269 62.9761 13.2616Z" fill="black"/>
<path d="M77.2795 19.5677L74.4739 14.9659H72.5204V19.5677H69.0854V6.9292H72.5204V11.9505H74.3559L77.2664 6.94231H81.1733L77.3975 13.1698L81.619 19.5546H77.2795V19.5677Z" fill="black"/>
<path d="M94.5726 14.3891H85.0675C85.4346 15.8705 86.6539 16.7489 88.3058 16.7489C88.9351 16.7489 89.5513 16.6178 90.1282 16.3556C90.705 16.0934 91.2032 15.7263 91.6228 15.2543L93.668 17.3389C92.475 18.9384 90.2855 19.8823 88.0698 19.8823C84.1629 19.8823 81.3311 17.1422 81.3311 13.2616C81.3311 9.15798 84.4514 6.60144 88.0436 6.60144C91.6359 6.60144 94.6251 9.17109 94.6251 13.0387C94.6513 13.3927 94.6251 13.8384 94.5726 14.3891ZM91.0853 12.0947C90.9673 10.6132 89.7611 9.65618 88.1616 9.65618C86.6932 9.65618 85.4477 10.3773 85.0806 12.0947H91.0853Z" fill="black"/>
<path d="M106.844 6.9161V10.233H102.924V19.5808H99.3575V10.233H95.4375V6.9292H106.844V6.9161Z" fill="black"/>
<path d="M114.828 6.88987L114.107 5.65749L113.399 6.88987H112.534L113.648 5.06752L112.521 3.37627H113.426L114.147 4.50377L114.828 3.37627H115.681L114.553 5.11996L115.681 6.88987H114.828Z" fill="black"/>
<path d="M118.473 5.68376C118.473 6.45728 117.896 6.94237 117.123 6.94237C116.965 6.95548 116.795 6.94237 116.637 6.87682C116.48 6.82438 116.336 6.7326 116.218 6.61461C116.087 6.49662 115.995 6.37862 115.93 6.20818C115.864 6.06397 115.838 5.90664 115.812 5.7231H116.533C116.546 5.86731 116.624 6.01153 116.755 6.11641C116.873 6.20819 117.031 6.26063 117.175 6.24752C117.254 6.24752 117.332 6.24752 117.398 6.22129C117.463 6.19507 117.529 6.15574 117.595 6.09019C117.647 6.03775 117.686 5.95908 117.713 5.89353C117.726 5.81487 117.739 5.74932 117.726 5.67066C117.726 5.59199 117.713 5.51333 117.673 5.44778C117.647 5.36911 117.595 5.30356 117.529 5.25112C117.463 5.19868 117.398 5.15935 117.319 5.13313C117.241 5.1069 117.162 5.1069 117.083 5.1069C116.965 5.1069 116.86 5.12001 116.742 5.17246C116.651 5.2249 116.546 5.30356 116.48 5.39534H115.825L116.061 3.3501H118.368L118.289 4.04495H116.637L116.572 4.7267C116.572 4.7267 116.755 4.51693 117.267 4.51693C117.424 4.50382 117.568 4.53004 117.739 4.58248C117.883 4.63493 118.014 4.7267 118.132 4.84469C118.25 4.96269 118.329 5.08068 118.394 5.23801C118.46 5.36911 118.486 5.52644 118.473 5.68376Z" fill="black"/>
<path d="M115.903 2.91743C115.51 1.39662 114.277 0.32156 111.708 0.32156H108.614L109.046 3.17964C109.374 5.74929 110.357 6.56214 112.075 6.87679C112.088 6.87679 112.088 6.87679 112.101 6.87679C112.114 6.87679 112.114 6.87679 112.114 6.86368C112.114 6.85057 112.127 6.85057 112.127 6.85057C112.127 6.85057 112.127 6.83746 112.127 6.82435C112.127 6.81124 112.127 6.81123 112.114 6.79812C112.114 6.78501 112.101 6.78502 112.088 6.78502C110.908 6.28682 110.777 4.67423 110.528 3.03543L110.331 1.72438H112.101C113.727 1.72438 114.985 1.69816 115.798 2.96987C115.798 2.98298 115.811 2.98298 115.811 2.98298C115.824 2.98298 115.824 2.98298 115.838 2.98298H115.851C115.851 2.98298 115.864 2.98298 115.864 2.96987L115.877 2.95676C115.903 2.93054 115.916 2.93054 115.903 2.91743Z" fill="#5FAE2D"/>
<defs>
<linearGradient id="paint0_linear" x1="8.97979" y1="1.46862" x2="22.134" y2="5.52574" gradientUnits="userSpaceOnUse">
<stop stop-color="#00F0FF"/>
<stop offset="1" stop-color="#0184FF"/>
</linearGradient>
<linearGradient id="paint1_linear" x1="3.71548" y1="17.798" x2="3.71548" y2="1.86536" gradientUnits="userSpaceOnUse">
<stop stop-color="#0184FF"/>
<stop offset="1" stop-color="#2FAAF4"/>
</linearGradient>
<linearGradient id="paint2_linear" x1="27.9934" y1="19.2668" x2="27.9934" y2="1.41464" gradientUnits="userSpaceOnUse">
<stop offset="0.17" stop-color="#0184FF"/>
<stop offset="0.91" stop-color="#04BBE4"/>
</linearGradient>
</defs>
</svg>
