<svg width="100" height="66" viewBox="0 0 100 66" fill="none" xmlns="http://www.w3.org/2000/svg">
<path d="M37.8047 27.5726H47.1193L54.6108 38.9994L61.7431 27.5726H70.6718L59.175 45.2405L70.9912 63.1141H62.0093L54.398 50.8766L46.9463 63.1141H38.0177L49.4892 44.6871L37.8047 27.5726Z" fill="#231F20"/>
<path d="M79.9997 51.7902C80.5333 55.3418 83.474 56.8731 86.6663 56.8731C90.6582 56.8731 92.3881 54.2738 92.3881 50.9281C92.3881 47.428 89.7001 45.2405 85.9743 45.2405C82.8872 45.2405 80.838 46.6688 79.8932 48.1872H72.6146L75.1295 27.5726H99.056L98.2695 34.4827H81.1454L80.4654 41.3028C80.4654 41.3028 82.2618 39.2568 87.7175 39.2568C94.2776 39.2568 99.9994 43.5161 99.9994 51.031C99.9994 58.8419 93.905 63.7189 85.9211 63.7189C78.8953 63.7189 72.9739 59.9614 72.3884 51.7902H79.9997Z" fill="#231F20"/>
<path d="M35.7241 65.3817C35.8079 65.3946 36.3748 65.4718 36.3828 64.8284C36.3854 64.5968 36.2337 64.3973 36.0275 64.3124C23.8879 59.3699 22.5027 43.1645 19.9106 26.9011L17.904 13.9421H36.1912C53.0505 13.9421 66.0657 13.6847 74.3078 26.268C74.4315 26.4455 74.6205 26.5755 74.8467 26.5755C75.166 26.5755 75.4016 26.3259 75.4016 26.0171C75.4016 25.9643 75.3936 25.9115 75.3803 25.8626C71.3497 10.6724 58.5634 7.62939e-06 32.0329 7.62939e-06H0L4.34858 28.4336C7.62066 54.0891 17.7669 62.3424 35.7241 65.3817Z" fill="#62BB46"/>
</svg>