<svg width="48" height="48" viewBox="0 0 48 48" fill="none" xmlns="http://www.w3.org/2000/svg">
<rect width="48" height="48" fill="#00923A"/>
<g clip-path="url(#clip0_202:121)">
<path d="M24.0614 8.22009C15.3272 8.22009 8.22192 15.3264 8.22192 24.0596C8.22192 32.7927 15.3272 39.9001 24.0614 39.9001C32.7956 39.9001 39.9019 32.7938 39.9019 24.0596C39.9019 15.3254 32.7956 8.22009 24.0614 8.22009Z" fill="white"/>
<path d="M32.7486 13.213C30.8129 18.2421 25.6756 17.591 22.0486 17.7168L21.1676 21.1493C25.6402 17.5088 31.5525 21.1181 30.92 26.6185C30.4946 30.3235 27.8537 32.746 25.0598 33.4429C22.0153 34.2022 18.6431 33.0664 17.1307 29.9636C16.9216 29.5298 16.7389 29.0838 16.5836 28.628L19.7945 27.8042C19.8566 27.9897 19.9419 28.1665 20.0483 28.3306C22.1973 31.7964 26.5524 30.0635 27.0444 26.4687C27.5437 22.8105 22.4116 20.8612 20.0754 25.1362L17.2264 23.9172L17.1765 23.8964L18.2364 19.6421C18.4059 18.8849 18.9104 16.9097 18.9645 16.7183C19.055 16.4229 19.0748 16.3251 19.1725 16.0567C20.997 11.2627 24.6042 10.779 27.8058 10.779C27.9338 10.779 28.0607 10.779 28.1865 10.779C24.8734 9.7413 21.2922 9.97746 18.1441 11.4412C14.9959 12.905 12.5073 15.4911 11.1655 18.6931C9.82375 21.8952 9.72529 25.4828 10.8895 28.7536C12.0536 32.0244 14.3966 34.7431 17.4598 36.3773C20.5229 38.0115 24.0857 38.4437 27.4508 37.5893C30.8158 36.7349 33.7409 34.6554 35.6533 31.7578C37.5658 28.8601 38.328 25.3531 37.7908 21.9231C37.2535 18.4931 35.4555 15.387 32.7486 13.213Z" fill="#E52322"/>
<path d="M31.4833 12.2676C30.9444 13.9413 30.0041 14.9951 28.5509 15.562C27.0384 16.1508 25.1983 16.1664 23.4175 16.1861C22.4605 16.1934 21.5451 16.2007 20.7046 16.3016C22.215 12.6525 24.9268 12.2926 27.8186 12.2926C28.2212 12.2926 28.6248 12.3009 29.0149 12.3092C29.4049 12.3176 29.7732 12.3238 30.1404 12.3238C30.6667 12.3238 31.0994 12.3082 31.4833 12.2728" fill="#00923A"/>
</g>
<defs>
<clipPath id="clip0_202:121">
<rect width="31.68" height="31.68" fill="white" transform="translate(8.22192 8.22009)"/>
</clipPath>
</defs>
</svg>
