<svg width="48" height="48" viewBox="0 0 48 48" fill="none" xmlns="http://www.w3.org/2000/svg">
<rect width="48" height="48" fill="white"/>
<path d="M28.0361 18.5009L23.9808 22.5377L19.9255 18.5009C17.6844 16.2701 17.6844 12.6228 19.9255 10.3919C22.1666 8.16103 25.795 8.16103 28.0361 10.3919C30.2773 12.6228 30.2773 16.2346 28.0361 18.5009Z" fill="#5FAF2D"/>
<path d="M19.9255 29.9034L23.9808 25.8312L28.0361 29.9034C30.2773 32.1343 30.2773 35.7815 28.0361 38.0124C25.795 40.2433 22.1666 40.2433 19.9255 38.0124C17.6844 35.7461 17.6844 32.1343 19.9255 29.9034Z" fill="#005A28"/>
<path d="M29.7082 28.239L25.6528 24.2022L29.7082 20.13C31.9493 17.8991 35.5777 17.8991 37.8189 20.13C40.06 22.3609 40.06 26.0082 37.8189 28.239C35.5777 30.4699 31.9493 30.4699 29.7082 28.239Z" fill="#1EAF37"/>
<path d="M18.2898 20.13L22.3451 24.2022L18.2898 28.239C16.0487 30.4699 12.4202 30.4699 10.1791 28.239C7.93801 26.0082 7.93801 22.3609 10.1791 20.13C12.4202 17.8991 16.0487 17.8991 18.2898 20.13Z" fill="#AAE641"/>
<g style="mix-blend-mode:lighten" opacity="0.3">
<path d="M0 8C0 3.58172 3.58172 0 8 0L40 0C44.4183 0 48 3.58172 48 8V40C48 44.4183 44.4183 48 40 48H8C3.58172 48 0 44.4183 0 40L0 8Z" fill="url(#paint0_radial_202:145)"/>
</g>
<defs>
<radialGradient id="paint0_radial_202:145" cx="0" cy="0" r="1" gradientUnits="userSpaceOnUse" gradientTransform="translate(13.6407 11.3118) rotate(73.2288) scale(25.3661)">
<stop stop-color="#84FFC4"/>
<stop offset="1" stop-color="#84FFC4" stop-opacity="0"/>
</radialGradient>
</defs>
</svg>
