<svg width="75" height="32" viewBox="0 0 75 32" fill="none" xmlns="http://www.w3.org/2000/svg">
<g clip-path="url(#clip0_202:167)">
<path d="M28.4244 31.7072L25.0734 25.8331L21.7918 31.7072H17.8646L22.9124 22.8539L17.7632 14.6315H21.8719L25.1642 20.1225L28.307 14.6315H32.2397L27.1758 23.1243L32.3784 31.7072H28.4244Z" fill="black"/>
<path d="M45.1475 25.9064C45.1475 29.6628 42.4795 32 38.9525 32C35.8576 32 33.2483 30.1978 32.9976 26.2724H36.3485C36.578 27.962 37.8746 28.711 39.2833 28.711C41.0389 28.711 41.7965 27.4664 41.7965 25.8557C41.7965 24.245 40.6173 23.1243 38.9792 23.1243C38.4565 23.0957 37.9358 23.211 37.4681 23.4588C37.0004 23.7066 36.6017 24.0784 36.3112 24.5378H33.1096L34.2194 14.6315H44.7367L44.3845 17.9486H36.8501L36.5513 21.2263C36.5513 21.2263 37.341 20.2464 39.7529 20.2464C42.629 20.2464 45.1475 22.2907 45.1475 25.9064Z" fill="black"/>
<path d="M33.3924 12.5083C31.6103 5.1869 25.9221 0 14.183 0H0L1.92628 13.7473C3.37233 26.1372 7.87055 30.1471 15.8265 31.617C15.8634 31.6279 15.9023 31.6287 15.9397 31.6196C15.977 31.6105 16.0116 31.5916 16.0403 31.5647C16.0689 31.5378 16.0908 31.5038 16.1038 31.4657C16.1167 31.4276 16.1204 31.3867 16.1146 31.3467C16.116 31.2937 16.1019 31.2415 16.0742 31.1971C16.0465 31.1528 16.0066 31.1185 15.9599 31.0989C10.5812 28.7111 9.96756 20.8715 8.82036 13.0095L7.92924 6.74129H16.0292C23.4996 6.74129 29.2678 6.61739 32.9176 12.7054C32.9431 12.7488 32.9783 12.7849 33.0202 12.8104C33.0621 12.836 33.1093 12.8502 33.1577 12.8518C33.1908 12.8519 33.2236 12.8448 33.2542 12.8311C33.2847 12.8174 33.3122 12.7972 33.3351 12.772C33.3581 12.7467 33.3759 12.7168 33.3876 12.6841C33.3993 12.6513 33.4046 12.6164 33.4031 12.5815C33.4026 12.5567 33.399 12.5321 33.3924 12.5083Z" fill="#5FAF2D"/>
<path d="M52.8154 14.6315H55.1259V31.7072H52.8154V14.6315Z" fill="black"/>
<path d="M59.1436 14.6314H65.9629C67.5398 14.6005 69.1006 14.9693 70.5145 15.7071C71.7945 16.3793 72.8652 17.425 73.599 18.7202C74.319 20.0807 74.6979 21.6134 74.6979 23.1721C74.6979 24.7308 74.319 26.2635 73.599 27.624C72.8652 28.9192 71.7945 29.965 70.5145 30.6371C69.1002 31.3729 67.5393 31.7399 65.9629 31.7072H59.1436V14.6314ZM65.8241 29.5896C67.0194 29.6165 68.2033 29.3404 69.2765 28.7842C70.2326 28.2827 71.0313 27.5005 71.5763 26.5315C72.1083 25.5028 72.387 24.3496 72.387 23.1778C72.387 22.0058 72.1083 20.8527 71.5763 19.824C71.0313 18.855 70.2326 18.0728 69.2765 17.5712C68.2033 17.0151 67.0194 16.7389 65.8241 16.7659H61.454V29.6008L65.8241 29.5896Z" fill="black"/>
</g>
<defs>
<clipPath id="clip0_202:167">
<rect width="74.9091" height="32" fill="white"/>
</clipPath>
</defs>
</svg>
