<svg width="72" height="48" viewBox="0 0 72 48" fill="none" xmlns="http://www.w3.org/2000/svg">
<path d="M27.2188 19.8522H33.9252L39.3192 28.0795L44.4544 19.8522H50.8831L42.6054 32.573L51.113 45.442H44.646L39.1659 36.631L33.8007 45.442H27.3721L35.6316 32.1746L27.2188 19.8522Z" fill="#231F20"/>
<path d="M57.5992 37.2888C57.9834 39.8459 60.1007 40.9485 62.3991 40.9485C65.2733 40.9485 66.5188 39.077 66.5188 36.6681C66.5188 34.148 64.5835 32.573 61.9009 32.573C59.6782 32.573 58.2027 33.6014 57.5225 34.6946H52.2819L54.0926 19.8522H71.3196L70.7534 24.8274H58.424L57.9345 29.7379C57.9345 29.7379 59.2279 28.2647 63.1559 28.2647C67.8792 28.2647 71.9989 31.3315 71.9989 36.7422C71.9989 42.366 67.611 45.8774 61.8626 45.8774C56.804 45.8774 52.5405 43.172 52.119 37.2888H57.5992Z" fill="#231F20"/>
<path d="M25.7213 47.0747C25.7817 47.0839 26.1898 47.1395 26.1956 46.6763C26.1975 46.5095 26.0883 46.3659 25.9398 46.3048C17.1993 42.7462 16.2019 31.0783 14.3356 19.3686L12.8908 10.0382H26.0576C38.1964 10.0382 47.5673 9.85287 53.5016 18.9128C53.5907 19.0407 53.7267 19.1342 53.8896 19.1342C54.1195 19.1342 54.2891 18.9545 54.2891 18.7321C54.2891 18.6942 54.2834 18.6562 54.2738 18.621C51.3718 7.68401 42.1657 -0.00012207 23.0636 -0.00012207H0L3.13098 20.4721C5.48687 38.944 12.7922 44.8864 25.7213 47.0747Z" fill="#62BB46"/>
</svg>
